<?xml version="1.0" encoding="UTF-8"?>
<svg id="Layer_1" xmlns="http://www.w3.org/2000/svg" xmlns:xlink="http://www.w3.org/1999/xlink" xmlns:serif="http://www.serif.com/" version="1.1" viewBox="0 0 1728 864">
  <!-- Generator: Adobe Illustrator 29.0.1, SVG Export Plug-In . SVG Version: 2.1.0 Build 192)  -->
  <defs>
    <style>
      .st0, .st1, .st2, .st3, .st4, .st5, .st6, .st7 {
        fill: none;
      }

      .st8 {
        display: none;
        stroke-width: 1.6px;
      }

      .st8, .st9 {
        fill-rule: evenodd;
      }

      .st8, .st9, .st1, .st2, .st3, .st4 {
        stroke-linejoin: round;
      }

      .st8, .st9, .st1, .st2, .st3, .st4, .st5, .st6, .st7 {
        stroke: #000;
      }

      .st9 {
        stroke-width: 1.6px;
      }

      .st1, .st2, .st3, .st4 {
        stroke-linecap: round;
      }

      .st10 {
        clip-path: url(#clippath-1);
      }

      .st2 {
        stroke-width: 1.1px;
      }

      .st3 {
        stroke-width: 1.7px;
      }

      .st4 {
        stroke-width: 1.3px;
      }

      .st5 {
        stroke-miterlimit: 2;
      }

      .st6 {
        stroke-miterlimit: 10;
      }

      .st7 {
        stroke-miterlimit: 2.5;
        stroke-width: 0px;
      }

      .st11 {
        clip-path: url(#clippath);
      }
    </style>
    <clipPath id="clippath">
      <path class="st0" d="M559.5,267.7"/>
    </clipPath>
    <clipPath id="clippath-1">
      <path class="st0" d="M559.5,267.7"/>
    </clipPath>
  </defs>
  <g id="Engraving">
    <g class="st11">
      <path d="M542.7,240.1c1.8,3,9.8,8.5,15,13.7-.3.2-14.2-15.7-15-13.7h0Z"/>
    </g>
    <g class="st10">
      <path d="M542.7,240.1c1.8,3,9.8,8.5,15,13.7-.3.2-14.2-15.7-15-13.7h0Z"/>
    </g>
    <g id="Light-Rain" serif:id="Light Rain">
      <g id="Light-Rain1" serif:id="Light Rain1">
        <path d="M-157.8,134.6c-.3,0,.2.2.2,0h-.2Z"/>
        <path d="M-178.8,97.6c-.4,0,0,.2.2,0h-.2Z"/>
        <path d="M-179.4,97.8c-.3,0,.2.2.2,0h-.2Z"/>
        <path d="M-193.3,130.4c-.3,0,.2.2.2,0h-.2Z"/>
      </g>
    </g>
    <g id="Light-Rain2" serif:id="Light Rain">
      <g id="Light-Rain11" serif:id="Light Rain1">
        <path d="M-157.8,134.6c-.3,0,.2.2.2,0h-.2Z"/>
        <path d="M-178.8,97.6c-.4,0,0,.2.2,0h-.2Z"/>
        <path d="M-179.4,97.8c-.3,0,.2.2.2,0h-.2Z"/>
        <path d="M-193.3,130.4c-.3,0,.2.2.2,0h-.2Z"/>
      </g>
    </g>
    <path class="st8" d="M-138.5,192.5c-2.1,1.5-.1,5.2.5,7.6,5.7,16.1,5.3,8.7,15.4,13.5,4.3,2,5.5,2.1,6.7.8.4-.5,5.6-3.7,13.1-8.1h.2c11-6.7,37.1-21.8,48.5-28.4,4.9,11.5,6.1.7,12.1,13.6,6,11.2,2.9,11.8,34-6.2l26.6-15.4c1.4,1.9,5,6.5,6,7.5.9,3.2-6.8,5.7-3.6,13.4,1.9,5.6,3.2,10.6,2.6,11.4,3.4-.6-62.1,38-81.4,49.7-7.2,9.9-18.6,26.8,1.1,23.3,2.3-.8,8.4-.8,11.5-.7,11.2-6.5,57.9-34.3,61.3-35.2,3.4,1-.7,3.8-32.9,23.1-18.1,11-33.3,20.4-33.7,20.8-1.2,1.3,0,7.7,1.7,10.9s7,8.1,8,7.5,1.8-.2,3.1,0c-.7,3.7,48.7-26.7,59.4-32.4l5.9,8.3c3.6-2.1,22.7-13.4,12.6-3.9,5.9,10.6,17.8,32.1,23.7,42.8l-8.9,5.8c-10.8,7.1-9.8,6.1-9.5,9.1,2.4,2.6-11.6,9.1-15.1,11.4l-1.2,4.4c-1.8,4.4,1.2,13.3,5.5,14.1,5.5,2,4.8,5,13,1.2,5.4-3.4,6.1,1.9,9.8,1.9.6-.3,1.9-.1,3,.4,1.3,3.2,17.8-9.7,18.4-7,5.5,2.5-32.5,20.9-27.9,22.1,1.5,3.1-9.4,11.2-10.3,13,.3.6,13.2-2,15-3.1s1.3-.3,1.5.2c.5,1.2-1.1,1.4-.7,2.4,5.7-1,19.8-11,26.2-9.2,2.8-2.6,13.3,20.6,16.3,18.7,4.9.9,6.2-1.7,12-3.6,4.4-1,19.9-11.1,23.7-11.5,1.1.4,7.9-1.5,9.9-2.2.9,1.7,3.5,6.6,3,7.8-.3.6-10.3,6.9-22.5,13.8-21.3,13.1-27.3,13.4-21.3,20.3,9.4,10,2.8,8.4-25,25.7-24.6,14.1-29.2,15.9-25.9,24.5,1.5,3.7,1.6,4.4.3,3.3-1.8-1.6-2.9-1.3-3,.6,1.5,2.2,6.6,1.9,8.6,5.2,1.5,1.7,3.1,3.2,3.7,3.2,1.9,0,53.7-28.9,55.5-28.9,7-1.7,2.9,5.7,11.8.5,3.1-1.5,11.3-6,18.4-10.1,7.9-3.9,18.1-12.4,19.3-6.9.9,5.4-1.8,6.8,2.7,11.9l-16.4,10.5c5,12.8,1,10.8-13.5,19.9-24.5,13.1-5.1,8.6-31,23.7-20,13.3-19.2,7.9-8,26.3,6-.7,22.9-10.4,31-14.6,1.9,3.1,8.3,12.8,7.9,14.7-.1,1.1-2.9,3.3-7.4,6.2-10,6.5-11.6,8.2-11.4,11.9.3,5.1,1.9,6.9,7.4,8.2,4.3,3.3,19.2-6.1,23.2-7.8,5-1.3,5.4,3.7,12.6.3.7,0,2.9,2.9,7,9.9,5.2,8.8,5.8,10.5,5.6,13.2.7,6.2-3,17.9,5.3,19.6,3,.7,5.7,3.3,7.6,5.5,8.4-3.3,34.9-19.5,42.7-22,1.4,2.6-3.9,1,.2,9.4,3.4,4.7-9.3,10.1-13.2,13.4-5.2,3.4-20,16-17.4,14.8.6-.2,1.6.3,2.2,1.5,7.5,6,26.7-4.9,34.3-7.8,5-2,5.2-2,6.9.3,2.2,3.1,1.4,3.9-9.5,9.8-7.1,3.8-8,4.5-8,6.3,0,4.4-2.2,9.7,1.4,14.3,2.1,3.6,2.7,4,3.8,2.9,1.9-1.8,2.3,2.1,5.4,1.1,9.5-1.7,4.8,6.1,15.2-.2,2.2-1.5,5.4-.7,5.6,1.5.2,1.2-1.3,2.3-7.8,6.1-12.3,6.1-4.3,6.2-10.7,11.8-11,8,2.1,12.9-3,18.4-3.1,2.8.3,7.5,3.9,6.8,1.7,0,4.3.5,5.9,1.2,1.7,2.7,13.2-4.5,17.8-7,3.4-.3,7.5-2.5,9.6-5h0c2.9-3.1,4.5-7.1,4.5-11.4v-315.1c0-6.8-4-12.9-10.2-15.3-55.1-26-23.5-66.1-43.8-78.7L-46.8,102.3c-7.3-5.1-20.8-.6-23,7.1l-4.1,8.8c49.4-26.6,18.9-9.2,5.9,1.5-.4,2.6,4.8,11.8,8.1,11.4,3.6,3.1,17.3-7.9,22.1-9.7,5,13.4-6.7,11.9-53.5,42.6M265.7,685.3h0ZM265.6,685.3h0ZM265.2,685.3h0ZM265,685.4h0Z"/>
  </g>
  <g>
    <g id="Cut-Layer" serif:id="Cut Layer">
      <path class="st1" d="M920.8,273.9c1.9-16.1,2.7-25.8,0-39.9l28.4-16.4,38.3-22.1c.2-.1.4-.2.5-.3,1.4-.7,3-1,4.4-.8v.6c0,1.6,1.3,2.9,2.9,2.9s.3,0,.4,0v.5c0,1.3.6,2.4,1.5,3.1-1.6.8-2.6,2.5-2.6,4.4s0,.5,0,.8c-.3.5-.5,1.1-.5,1.8,0,2,1.6,3.6,3.6,3.6s.4,0,.6,0c-.4.8-.6,1.6-.6,2.5s.2,1.7.5,2.4h0v.6c0,1.7,1.4,3.1,3.1,3.1s.8,0,1.1-.2h0c.4.1.9.2,1.4.2s1.3-.1,1.9-.3c0,1.1.6,2,1.2,2.8-1.5.7-2.5,2.2-2.5,3.9s0,.7,0,1c-.6-.5-1.3-.8-2.1-.8-1.8,0-3.2,1.4-3.2,3.2s.8,2.5,2,3c-1.5,1.7-2.5,3.9-2.5,6.3s0,1.5.3,2.1h-.3c-2.7,0-5,2.2-5,5s.8,3.1,2,4c-.6,1.3-.9,2.6-1,4.1-1.5.5-2.5,1.9-2.5,3.5s1.4,3.4,3.2,3.6c.4,2.4,2.1,4.3,4.3,5-.3.6-.4,1.2-.4,1.8,0,2.4,1.9,4.3,4.3,4.3s1.5-.2,2.2-.6c.7,1.1,1.9,1.8,3.2,1.8s0,0,0,0c1.1,1.1,2.5,1.9,4.2,2.2.5.8,1.3,1.4,2.2,1.7-.4.5-.6,1-.6,1.7,0,1.5,1.2,2.8,2.8,2.8s1.1-.2,1.5-.5c.7,22.2-2.1,43.8-8,64.1l-4.2,13c-5.3,13.3-10.9,25.9-18.3,37.8,0-3.3-2.4-6-5.4-6.8h0v-.7c2.6-.6,4.5-2.4,4.5-4.5s-1.9-4-4.5-4.5v-1.8c0-6.2-3.7-11.3-8.3-11.3s-5,1.7-6.5,4.3c-.5-.2-1.1-.3-1.6-.3-2.6,0-4.8,1.9-5.3,4.4-1,.2-1.9.5-2.8.9-1.4-1.3-3.2-2.2-5.3-2.2-4.2,0-7.6,3.4-7.6,7.6s.2,1.9.5,2.8c-2.3,1.3-3.6,3-3.6,4.8s.5,2.3,1.5,3.2c-1.9,1.4-3.2,3.7-3.2,6.2s.6,3.5,1.7,4.8c-.5.3-1,.6-1.4,1-5.2,3.9-6.7,10.6-3.5,14.8,3.2,4.2,10,4.5,15.2.6.2-.1.4-.3.5-.4.3,0,.7.1,1,.1,2.5,0,4.6-1.6,5.4-3.9,3.7,0,6.9-1.7,7.8-3.9.8-.3,1.5-.6,2.1-.9.2,2.7,1.7,4.9,3.6,4.9s1.2-.2,1.7-.7c.2,0,.3.1.5.2-4,5.2-8.3,10.2-12.8,15-.8-1.3-2.2-2.2-3.8-2.2s-2.3.5-3.1,1.2c-1,0-1.9.4-2.6.9-.7-.9-1.8-1.5-3-1.5-2.1,0-3.7,1.7-3.7,3.7s.5,2.1,1.2,2.7c-1,.8-1.6,2-1.6,3.3h0c-.5.7-.8,1.5-.8,2.4,0,1.7,1.2,3.1,2.8,3.4-3.8,3.3-7.6,6.4-11.6,9.4.2-.7.2-1.4.2-2.1,0-1.4-.3-2.6-.8-3.8.7-1.1,1-2.4,1-3.7,0-4.2-3.4-7.6-7.6-7.6s-6.8,2.6-7.4,6.1c-1.4.7-2.7,1.8-3.6,3.2-.8-1.1-2.1-1.7-3.5-1.7-2.5,0-4.5,2-4.5,4.5s.5,2.4,1.3,3.2c-1.5.2-2.8.9-3.8,1.9-.9-2.3-3.1-3.9-5.7-3.9s-6.1,2.7-6.1,6.1.3,2.3.9,3.2c-2.1,2.1-3.4,5-3.4,8.2-1.8,1.3-2.9,3.3-2.9,5.6s1.2,4.6,3.1,5.8c-20.5,8.8-42.9,14.5-66.4,16.2h-.6c-4,0-7.3-2.7-8.3-6.4h0v-67.9M818.9,420.9c36.3-18.5,77.3-71.7,86.1-100M797,289.6c0-9,7.3-16.3,16.3-16.3s16.3,7.3,16.3,16.3-7.3,16.3-16.3,16.3-16.3-7.3-16.3-16.3ZM770.7,386.9c12,12.5,26.3,25,36.9,32.1v30.6c-1.4,0-2.7,1-3.1,2.3-2.3-2.1-5-3.5-7.8-4.2-.6-2.7-2.3-4.9-4.6-6.2-1.2-2.8-4-4.7-7.2-4.7s-2.4.3-3.5.8c-2-4-6.2-6.8-11.1-6.8s-8,2.2-10.3,5.4c-2-1.6-4.5-2.5-7.2-2.5-1.6-.7-3.4-1.1-5.3-1.1-3.5,0-6.8,1.3-9.3,3.5-.3-2.5-2.7-4.3-5.3-3.9s-3.4,1.8-3.7,3.7,0,2.1.3,2.8l-.2.3c-2.3,0-4.5.6-6.3,1.7-1,0-2,.1-3,.3-.6-1.7-1.5-3.1-2.8-4.3-.8-2.4-3-4.1-5.6-4.1s-2.7.5-3.7,1.3c-3.9.7-7.1,3.6-8.3,7.3-.9,0-1.7,0-2.6.3-1.2-1.3-.9-2-2.7-2.2,0,0-2-.2-2.1-.2l-1.4.7c-1.8.9-3,2.8-3.1,4.8l.3,3c0,.7.2,1.4.4,2l1.3,3.9-14.6-9.6-17.1-17c-2.5-3-7.2-10.8-9.5-13.9.9-1.3,1.4-2.8,1.4-4.4s0-.4,0-.5c.9.2,1.8.3,2.7.3,6.2,0,11.3-5,11.3-11.3s0-.6,0-.9c.4,0,.8.1,1.2.1,3.2,0,5.8-2.6,5.8-5.8s-1.1-3.8-2.7-4.9c.5-.3.9-.6,1.4-.9,4.8-.3,8.6-4.3,8.6-9.2s-.4-3.6-1.2-4.6l-.2-.5c0-4-1.3-7.8-3.4-10.7,2.9-2.1,4.9-5.5,4.9-9.3s-3.3-9.4-8-10.9c0-.3.2-.5.3-.8h.5c1.9,0,3.5-1.5,3.5-3.3s-1.3-3.2-3-3.5h0c0-11.6-8.6-21.2-19.8-22.6-.8-1.6-2.4-2.7-4.3-2.7s-3.9,1.4-4.6,3.3c-.5.1-1,.3-1.5.5-.6-1.1-1.4-2.1-2.3-3.1,0-.5.2-1.1.2-1.6,0-3.5-2.2-6.5-5.3-7.7,1.6-1.6,2.6-3.7,2.6-6.1s-1.3-4.9-3.3-6.6-4.1-2.4-6.1-2.2c-.8-.7-1.6-1.4-2.5-1.9.8-1.2,1.3-2.6,1.3-4.1s0-1.7-.4-2.5c1.5-2.6,2.3-5.6,2.3-8.8s0-1.4,0-2.1c.9-1.3,1.5-2.8,1.5-4.5,0-3-1.7-5.5-4.2-6.7,1.8-1.6,2.8-4,2.8-6.6s-.9-4.4-2.3-6.1c2.3-2.8,3.6-6.4,3.6-10.3s0-.4,0-.6c1.1-1.5,1.8-3.4,1.8-5.4,0-4.2-2.8-7.8-6.7-8.9.9-1.3,1.4-2.8,1.4-4.4s-.5-3.2-1.3-4.4c1-2.3,2.1-4.7,3.2-7h0c0-.1,0-.2.2-.3,2.3-4.1,7.5-5.5,11.6-3.1l58.4,33.7,4.8,34.5,2.6,13.9c2.1,11.3,6.2,22.1,11.9,32l8.4,14.6,16.2,22.9M913,223.7c-38.1-23-83.5-29.3-118.7-25.8v-37.3h-9v-38.9h-4.5v-25.8h-4.7v2.2h-11.4v-2.3h-4.5v26h-4.8v38.7h-9.7l.7,42.5c-17.4,4.2-32.1,10.2-43.7,16l-57.9-33.5c-.2-.1-.3-.2-.5-.3-3.9-2.6-4.9-7.9-2.3-11.8,14.8-21.8,33.6-40.6,55.4-55.4,21-14.2,43.6-24,66.9-29.7l13.3-2.8c32.3-5.7,65.4-3.5,96.4,6-.4,0-.7,0-1.1.2-2.7.9-5.4,1.8-8.1,2.8-3.9-1.3-13.4-4.2-18.3-4.7-3.3-.3-8.2,0-8,.7.2,1.1,1.9,2.2,4.3,3.3h0c-.4.6-.2,1.2.3,1.6s1.2.4,1.5,0c.2-.2.2-.5.2-.8,1,.4,2.1.8,3.3,1.1v.8c.2.6.8,1,1.3.8.4,0,.7-.6.7-1,1.7.5,3.5,1,5.2,1.4-8.9,3-17.8,6-26.7,9l-8.3-9.3c-2-.6-3.2-.4-3.8.2-.8.7-1.1,2.2,0,5.8-.8,0-1.8.4-3,.8,1.5.8,2.9,1.7,4.4,2.6.7,1.7,1.7,3.7,3,6,.8,0,1.5-.2,2.2-.3,1,1.5,2.4,2.9,2.9,4.1.5,0,1.4-2.5,1.5-4.6,1.1,0,2.1-.3,3-.4,0,0,14.2-2,29.7-7.2v3.2h-.5c-.6.2-.9.8-.7,1.4s.7,1,1.2.9v3h-.5c-.6.2-.9.8-.7,1.4s.7,1,1.3.8v1c0,.4.6,2.4,1.8,2.7,1.3.3,2.6-1.8,3.3-2.8,2.5-3.8,2.6-9.8,2.1-14.5,5.2-2.1,10.2-4.5,14.7-7.4,40.3,14.2,72.6,41.4,102.4,79.1,0,.2.2.3.3.5,2.4,4.1,1,9.3-3.1,11.6l-68.8,38"/>
      <g id="g36">
        <path id="path34-2" class="st5" d="M713.3,493c-4.8-2.4-8.3-6.9-9.2-12.3-.8-4.7-5-8.2-9.8-8.2s-1.9.1-2.8.4c-5.2,1.5-10.8.5-15.1-2.8-9.5-7.2-18.4-15.1-26.7-23.7-3.7-3.9-5.4-9.4-4.5-14.7v-1.7c0-5.2-4.1-9.6-9.3-9.9-5.4-.3-10.3-3.2-13.2-7.8-23.7-36.7-36.3-79.4-36.3-123.1,0-104.1,71.6-195.5,172.5-220.3,5.2-1.3,10.8,0,15,3.5,1.8,1.5,4,2.3,6.4,2.3s6.4-1.7,8.3-4.4c3-4.5,7.9-7.3,13.3-7.6,3.7-.2,7.5-.3,11.3-.3,124.4,0,227.2,103.1,226.7,226.9-.3,73.4-10.5,67.1-13.3,70.9-3.9,3,.7.2-6.2,3.5-3.9,1.4-6.7,6.9-6.5,9.3s0,.6,1,4.4c2.4,4.8,2.4,10.5,0,15.4-52.4,111.3-191.4,154.3-301.7,100.1h0,.2Z"/>
      </g>
    </g>
    <path class="st4" d="M820.8,249.9"/>
    <path class="st4" d="M813.3,297.6"/>
    <path class="st4" d="M833,334.1"/>
    <path class="st4" d="M832.3,291.6"/>
    <path class="st1" d="M905,320.8l25.2,16.8,5-7.4,32.3,21.7,2.7-3.9,21.4,14.4,2.6-3.9-1.9-1.2,6.3-9.6,1.9,1.2,2.5-3.7-21.6-14.5,2.5-4-32.2-21.4,5.4-8.1-36.4-23.3"/>
    <path class="st1" d="M741.8,347.1l-25.3,22.1,5.9,6.6-29.2,25.3,3,3.6-19.3,16.8,3.1,3.7,1.7-1.5,7.5,8.5-1.7,1.5,2.9,3.4,19.5-17,3.2,3.5,28.8-25.3,6.3,7.2,22.6-18.7"/>
  </g>
  <line class="st4" x1="770.4" y1="166.6" x2="770.4" y2="197.4"/>
  <line class="st4" x1="775.3" y1="170.3" x2="775.3" y2="197.4"/>
  <line class="st4" x1="765.7" y1="170.3" x2="765.7" y2="198.3"/>
  <line class="st4" x1="770.4" y1="106.2" x2="770.4" y2="157.1"/>
  <line class="st4" x1="765.7" y1="126.6" x2="765.7" y2="157.1"/>
  <line class="st4" x1="775.3" y1="126.6" x2="775.3" y2="157.1"/>
  <line class="st4" x1="753.3" y1="168.4" x2="753.3" y2="200.1"/>
  <line class="st4" x1="787.7" y1="168.4" x2="787.7" y2="197.4"/>
  <polyline class="st4" points="779.5 196.9 779.9 162.5 760.5 162.5 760.5 199.4"/>
  <path class="st4" d="M813.3,172"/>
  <line class="st4" x1="735.7" y1="384.9" x2="757.9" y2="367.2"/>
  <line class="st4" x1="735.3" y1="378.8" x2="754.9" y2="363.1"/>
  <line class="st4" x1="741.6" y1="386.1" x2="759.6" y2="371.8"/>
  <line class="st4" x1="689.7" y1="424.1" x2="728.4" y2="391.1"/>
  <line class="st4" x1="708.3" y1="414.5" x2="731.5" y2="394.7"/>
  <line class="st4" x1="702.1" y1="407.2" x2="725.3" y2="387.4"/>
  <line class="st4" x1="748.1" y1="396.9" x2="767.6" y2="382"/>
  <line class="st4" x1="725.8" y1="370.6" x2="747.9" y2="351.8"/>
  <polyline class="st4" points="752.8 358.4 726.5 380.4 739 395.2 763.4 375.6"/>
  <line class="st4" x1="940.7" y1="315.8" x2="912.2" y2="296.7"/>
  <line class="st4" x1="934.9" y1="317.8" x2="910.2" y2="301.2"/>
  <line class="st4" x1="940.2" y1="309.9" x2="913.3" y2="291.8"/>
  <line class="st4" x1="990.7" y1="349.4" x2="948.6" y2="321.2"/>
  <line class="st4" x1="976.5" y1="334.2" x2="951.2" y2="317.3"/>
  <line class="st4" x1="971.1" y1="342.2" x2="945.9" y2="325.2"/>
  <line class="st4" x1="948.8" y1="300.7" x2="918.5" y2="280.4"/>
  <line class="st4" x1="929.6" y1="329.2" x2="907.5" y2="314.4"/>
  <polyline class="st4" points="909.2 305.6 938.8 325.9 949.6 309.9 915.5 287"/>
  <g id="Etch-Layer" serif:id="Etch Layer">
    <path class="st1" d="M658.5,282.1"/>
    <path class="st3" d="M683.6,388"/>
    <path class="st3" d="M681.4,392.6"/>
    <path class="st1" d="M658.5,282.1"/>
    <path class="st3" d="M683.6,388"/>
    <path class="st3" d="M681.4,392.6"/>
    <path class="st1" d="M815.7,103.1c.5,1.2.9,2.4,1.4,3.5"/>
    <path class="st1" d="M826.6,111.7c0-.4.3-2.8-1.8-5.6"/>
    <path class="st1" d="M816.4,96.9c.9,3,1.9,6,2.8,9"/>
    <path class="st1" d="M822.3,112.2l-2.2-4.6"/>
    <path class="st1" d="M881.7,93.9c1.9-1.3,4.4-2.5,4.8-4.4,0-.2.6-1.2-.3-1.9-.2-.2-1.9-.9-3.3-.4-2.2.7-6,1.8-10,3.8"/>
    <path class="st1" d="M881.8,88.4c-.2,0,.3.6,1.2,1.1l2.4-1.2c-1-.5-1.9-.6-3.5,0h-.1Z"/>
    <circle class="st1" cx="878.4" cy="91.3" r=".8"/>
    <circle class="st1" cx="875.4" cy="92.5" r=".8"/>
    <circle class="st1" cx="872.6" cy="93.5" r=".8"/>
    <circle class="st1" cx="869.5" cy="94.6" r=".8"/>
    <circle class="st1" cx="866.5" cy="95.6" r=".8"/>
    <circle class="st1" cx="863.7" cy="96.7" r=".8"/>
    <circle class="st1" cx="860.8" cy="97.8" r=".8"/>
    <circle class="st1" cx="857.7" cy="98.8" r=".8"/>
    <circle class="st1" cx="854.6" cy="99.6" r=".8"/>
    <circle class="st1" cx="851.5" cy="100.6" r=".8"/>
    <circle class="st1" cx="848.6" cy="101.6" r=".8"/>
    <circle class="st1" cx="845.4" cy="102.8" r=".8"/>
    <circle class="st1" cx="842.5" cy="103.7" r=".8"/>
    <circle class="st1" cx="839.3" cy="104.5" r=".8"/>
    <circle class="st1" cx="836.3" cy="105.6" r=".8"/>
    <circle class="st1" cx="833.3" cy="106.4" r=".8"/>
    <path class="st1" d="M854.2,97.3c3.3-1.1,6.6-2.1,9.9-3.2"/>
    <path class="st1" d="M841.7,93.3c.9.4,1.7.7,2.3.9,1.2.5,2.2.8,3.2,1.1.9.3,1.7.5,2.3.7"/>
    <path class="st1" d="M859.4,107.1c0,.8,0,1.6,0,2.5,0,1.8,0,3.5.2,5.2"/>
    <path class="st1" d="M759.6,435.5c1.1,1,2.7,2.9,3.7,5.6.4,1,.6,2,.7,2.9"/>
    <path class="st1" d="M780.7,436.5c.6,1.2,1.3,3,1.4,5.3,0,.9,0,1.8,0,2.5"/>
    <path class="st1" d="M719.6,440.4c.5.9,1.3,2.4,1.6,4.3.2,1.3.2,2.4,0,3.2"/>
    <path class="st1" d="M737.8,435.5c2.2.7,3.8,2.5,4.1,4.6.3,2-.6,3.5-.9,4"/>
    <path class="st1" d="M749.2,461.8c1.2.4,5.2,1.9,7.5,6.1,1,1.8,1.4,3.5,1.5,4.7"/>
    <path class="st1" d="M783.9,462.5c-.6-.2-5.9-1.9-10.2,1.2-1.8,1.3-2.8,3-3.3,4.1"/>
    <path class="st1" d="M712,457.5c.7,0,8.2-.9,12.9,4.5,2.3,2.6,2.9,5.6,3.1,7"/>
    <path class="st1" d="M733.8,453.8c2.9-.5,5.6.6,6.7,2.5.2.4.6,1.3.6,2.5"/>
    <path class="st1" d="M663.1,395.8c-.2-1.4-1.1-7-5.7-9.9-.9-.6-1.9-1-2.8-1.2"/>
    <path class="st1" d="M672.5,359.4c-.6-1.7-2.5-6.5-7.2-8.7-.9-.4-1.8-.7-2.6-.9"/>
    <path class="st1" d="M650.4,309.2c.7,1,1.9,3.2,2,6.2,0,1.7-.2,3.1-.6,4.1"/>
    <path class="st1" d="M668.8,339.4c-2-2.7-4.7-4.1-7-3.5-.5.1-1.2.4-1.9,1"/>
    <path class="st1" d="M623.8,280.8c-.2.8-1.6,5.7-6.1,7.5-1.3.5-2.4.7-3.4.7"/>
    <path class="st1" d="M624.7,239.5c-1.3-2.3-3.8-6-8.4-8-.8-.4-1.6-.7-2.4-.9"/>
    <path class="st1" d="M641,343.3c-.9,3.2-2,6-3.2,8.6"/>
    <path class="st1" d="M640.5,310.1"/>
    <path class="st1" d="M633.2,297.7c-.5-.7-2.6-3.5-6.5-4.2-2.1-.4-3.9.1-4.8.4"/>
    <path class="st1" d="M638.3,307c0,.3,0,4.2-2.9,6.2-1.3.9-2.7,1-3.4,1"/>
    <path class="st1" d="M622.9,307c.8.8,4.9,4.8,4.5,10.5,0,1.5-.5,2.8-1,3.9"/>
    <path class="st1" d="M638.5,370.1c4.7.5,8.4,3.1,9.5,6.6.2.8.5,2.2,0,4"/>
    <path class="st1" d="M652.2,354c1.7-3.6.9-7.1-1.1-8.2-1.3-.7-2.8-.3-3.5,0"/>
    <path class="st1" d="M662.4,364.9c3.8,2.7,5.6,6.4,4.6,9-.2.5-.6,1.3-1.4,2"/>
    <path class="st1" d="M650,327.6c4.2-1.8,8.7-1.4,11.7,1.1,1.6,1.3,2.3,2.9,2.8,4.1"/>
    <path class="st1" d="M627.1,329.9c2.7-.8,5.3.1,6.2,1.9.6,1.2.3,2.4,0,3"/>
    <path class="st1" d="M606.9,338c1,.6,4.5,3,5.9,7.7,1.3,4,.4,7.4,0,8.6"/>
    <path class="st1" d="M616.8,371.7c3.1-1.6,6.5-1,8.1,1.1,1.4,1.7,1.2,3.8,1.1,4.4"/>
    <path class="st1" d="M640.2,392.4c2.2,1,3.6,2.9,3.7,5.1,0,1.7-.8,3-1.1,3.5"/>
    <path class="st1" d="M605.2,250.1c.2.2,3.6,2.7,3.3,6.8-.2,3.3-2.5,5.2-2.9,5.5"/>
    <path class="st1" d="M598.8,301.8c2.1.3,3.6,1.9,4,3.7.4,2.2-1.2,3.8-1.3,4"/>
    <path class="st1" d="M610.9,271c0,1.2-.2,9.5-6.6,14.1-1.9,1.4-3.9,2.1-5.5,2.4"/>
    <path class="st1" d="M623.7,351.8c1.4-.6,3-.3,4,.7s.9,1.9.9,2.2"/>
    <path class="st1" d="M670.4,437.3"/>
    <path class="st1" d="M696.6,440.9c.7.9,1.8,2.7,1.9,5v1.7"/>
    <path class="st1" d="M712.2,435.3"/>
    <path class="st1" d="M707.5,433.3"/>
    <path class="st1" d="M707.2,440.8c.3-.4,1.7-2,4-2.3,1.2-.1,2.2.1,2.7.3"/>
    <path class="st1" d="M699.4,460.6c1.5-.2,2.9.7,3.2,2,.2.9-.2,2-.9,2.6"/>
    <path class="st1" d="M809.1,469.7c-1.5-.5-9.2-2.9-16.5,1.3-2.9,1.7-4.8,3.9-5.9,5.5"/>
    <path class="st1" d="M754.2,490c.9-.4,9.7-4.1,16.7.7,2.2,1.5,3.6,3.3,4.4,4.8"/>
    <path class="st1" d="M650.9,421.6"/>
    <path class="st1" d="M662.3,427.2"/>
    <path class="st1" d="M942.9,403.5s3-2.4,6.8-2"/>
    <path class="st1" d="M958.8,376.2s-3.3,1.4-3,4.5"/>
    <path class="st1" d="M968.5,387.8s-6.7,8.1-5.7,11.9"/>
    <path class="st1" d="M983.1,389.2s-2-.1-3.4.7"/>
    <path class="st1" d="M980.7,401.1s-3.3,4.7-2.5,7.2"/>
    <path class="st1" d="M954,410.2s-2.7,2.6-2.3,4.8"/>
    <path class="st1" d="M946.1,439s1.6-2.6,3.6-1.3"/>
    <path class="st1" d="M957.6,431.5s-1.8,1.4-2.2,3.9"/>
    <path class="st1" d="M911.6,451.7s7.2-1.9,8.4-.3"/>
    <path class="st1" d="M893.9,466.5s7.1-3.4,9.4-2.1"/>
    <path class="st1" d="M918,460.4s-9.9.5-11.1,10"/>
    <path class="st1" d="M932.2,442.4s-4.4-3.8-6.6-.5"/>
    <path class="st1" d="M930.8,450.4s-3.6.3-4.6,4.1"/>
  </g>
  <path class="st2" d="M295.4,86.5s4.1.1,6,3.1c1.8,3-.1-3.4,5.5-3.3"/>
  <path class="st2" d="M295.4,86.5s4.1.1,6,3.1c1.8,3-.1-3.4,5.5-3.3"/>
  <path class="st2" d="M205.6,111.6s3.8-1.2,5,1.9c1.1,3,.8-2.5,4.9-2.6"/>
  <path class="st2" d="M205.6,111.6s3.8-1.2,5,1.9c1.1,3,.8-2.5,4.9-2.6"/>
  <path class="st2" d="M329.1,111.3s2.4-1.2,3.1,1.5c.5,2.6,1-3.4,3.4-3.6"/>
  <path class="st2" d="M329.1,111.3s2.4-1.2,3.1,1.5c.5,2.6,1-3.4,3.4-3.6"/>
  <path d="M434.8,321.3c2.2,3,14.5,12.3,18.5,16.4-.3.2-18.9-19.8-18.5-16.4h0ZM450.4,334.9h0c-.1-.1,0-.1.2-.1h-.2ZM450.8,335.3h0c-.1-.1,0-.1.2-.1h-.2Z"/>
  <path d="M403.4,426.2c2.2,3,14.5,12.3,18.5,16.4-.3.2-18.9-19.8-18.5-16.4h0ZM419.1,439.8h0c-.1-.1,0-.1.2-.1h-.2ZM419.5,440.1h0c-.1-.1,0-.1.2-.1h-.2Z"/>
  <path d="M407.3,382c1.3,2.2,12.2,10.6,13.6,12.1-.5-.4-10.9-11-13.5-12.5v.3h-.1Z"/>
  <path d="M408.6,402.1c1.3,2.2,12.2,10.6,13.6,12.1-.5-.4-10.9-11-13.5-12.5v.3h-.1Z"/>
  <path d="M379.9,392.5c1.3,2.2,12.2,10.6,13.6,12.1-.5-.4-10.9-11-13.5-12.5v.3h-.1Z"/>
  <path d="M376.6,409.4c1.3,2.2,12.2,10.6,13.6,12.1-.5-.4-10.9-11-13.5-12.5v.3h-.1Z"/>
  <path d="M361.9,374.3c1.3,2.2,12.2,10.6,13.6,12.1-.5-.4-10.9-11-13.5-12.5v.3h-.1Z"/>
  <path d="M490,347.9c1.3,2.2,12.2,10.6,13.6,12.1-.5-.4-10.9-11-13.5-12.5v.3h-.1Z"/>
  <path d="M397,349.4c1.3,2.2,12.2,10.6,13.6,12.1-.5-.4-10.9-11-13.5-12.5v.3h-.1Z"/>
  <path d="M448.4,311c.6,1.9,16.4,14.4,18.7,16.6.2-.1-2.8-2.5-2.4-2.4.7.4-10-9.8-13.7-13.1-1.5-1.2-2.3-2.3-2.4-1.2h-.1ZM464,324.7h0c-.1-.1,0-.1.2-.1h-.2ZM464.5,325.1c-.4,0,0-.3.1,0h-.1Z"/>
  <path d="M418.4,369.3c.5,2.1,12.8,11.4,16.2,14.6,0,0,2.2,1.9,2.3,1.9-1.9-1.6-15.1-15.3-18.2-16.9-.2,0-.2.1-.2.3h-.1ZM433.9,383.1h0c-.1-.1,0-.1.2-.1h-.2ZM434.4,383.5h0c-.1-.1,0-.1.2-.1h-.2Z"/>
  <path d="M384.1,378.4c.5,2.1,12.8,11.4,16.2,14.6,0,0,2.2,1.9,2.3,1.9-1.9-1.6-15.1-15.3-18.2-16.9-.2,0-.2.1-.2.3h-.1ZM399.6,392.2h0c-.1-.1,0-.1.2-.1h-.2ZM400,392.5h0c-.1-.1,0-.1.2-.1h-.2Z"/>
  <path d="M418.4,345.9c.5,2.1,12.8,11.4,16.2,14.6,0,0,2.2,1.9,2.3,1.9-1.9-1.6-15.1-15.3-18.2-16.9-.2,0-.2.1-.2.3h-.1ZM434,359.7h0c-.1-.1,0-.1.2-.1h-.2ZM434.4,360h0c-.1-.1,0-.1.2-.1h-.2Z"/>
  <path d="M384.6,344.3c.5,2.1,12.8,11.4,16.2,14.6,0,0,2.2,1.9,2.3,1.9-1.9-1.6-15.1-15.3-18.2-16.9-.2,0-.2.1-.2.3h-.1ZM400.3,358.1h0c-.1-.1,0-.1.2-.1h-.2ZM400.7,358.5h0c-.1-.1,0-.1.2-.1h-.2Z"/>
  <path d="M437.2,334.8c1.9,3.1,11,9.9,15.4,14,0,0-1.6-1.7-1.8-1.7h0c.4.5-11.5-12-13.6-12.7v.3h0Z"/>
  <path d="M459.4,328.2c1.8,3,9.8,8.5,15,13.7-.3.2-14.2-15.7-15-13.7h0Z"/>
  <path d="M497.8,314.5c1.8,3,9.8,8.5,15,13.7-.3.2-14.2-15.7-15-13.7h0Z"/>
  <path d="M459.2,308.9c.7,1.9,12.8,10.9,14.3,12.7-.2,0-14.6-15.4-14.3-12.6h0ZM471.6,319.7c-.4,0,0-.3.1,0h-.1ZM472,320h0c-.1-.1,0-.1.2-.1h-.2ZM472.4,320.3h0c-.1-.1,0-.1.2-.1h-.2Z"/>
  <path d="M437.6,352c3,4.4,13.3,11.4,17,15.3,1.9,1.7,2,1.7.5.3-.5-.5-1.1-1-1.2-1q-.2,0,0,0c.2,0-3.3-3.4-10.7-10.2-1.8-1.3-5-5.7-5.7-4.3h0ZM453.3,365.8h0c-.1-.1,0-.1.2-.1h-.2ZM453.7,366.2h0c-.1-.1,0-.1.2-.1h-.2Z"/>
  <path d="M453.5,337.9c0,0,0,0-.2,0h0c0,.1.2,0,.2,0Z"/>
  <path d="M427.4,388.8c1.3,1.8,7,6.1,12.6,11.2-1.3-.7-12.7-13.6-12.6-11.1h0Z"/>
  <path d="M455.7,345.4c2.1,2.2,10.8,9,13.5,11.3-2.4-1.9-13.7-13.6-13.5-11.3h0Z"/>
  <path d="M426.5,400.8c.9,1.9,14.6,12.7,18.5,16.3-2.6-2.4-14-14-18.1-16.8-.3,0-.3.2-.3.5h-.1ZM442.6,414.7h0c-.1-.1,0-.1.2-.1h-.2ZM442.8,415h0c-.1-.1,0-.1.2-.1h-.2Z"/>
  <path d="M440.7,374.9c0,.4,11.1,9.5,13.2,11-.2.2-13.2-13.2-13.1-11h-.1Z"/>
  <path d="M437,386.2c0,0,0,0-.2,0h0c0,.1.2,0,.2,0Z"/>
  <path d="M440.2,400.3c0,0,0,0-.2,0h0c0,.1.2,0,.2,0Z"/>
  <path d="M462.4,365.7c1.9,3,14.9,12.9,17.6,15.7,1.7,1.2-6.6-6.6-9.8-9.6-2.7-2.2-7.5-8.2-7.8-6h0ZM478.4,379.6h0c-.1-.1,0-.1.2-.1h-.2ZM478.7,379.9h0c-.1-.1,0-.1.2-.1h-.2Z"/>
  <path d="M469.3,356.9c0,0,0,0-.2,0h0c0,.1.2,0,.2,0Z"/>
  <path d="M450,392.7c2.4,3.6,12.3,10.5,17.3,15.5,1.5,1.3,1.4,1.3-.8-1-.4.1-16.3-17.1-16.6-14.5h.1ZM465.8,406.6h0c-.1-.1,0-.1.2-.1h-.2ZM466.1,406.9h0c-.1-.1,0-.1.2-.1h-.2Z"/>
  <path d="M454.4,386.5c.1,0,.2,0,.1,0,0,0-.1-.1-.2-.1h0c0,.1.1.1.1.1Z"/>
  <path d="M454.7,386.8c0,0,0,0-.2,0h0c0,.1.2,0,.2,0Z"/>
  <path d="M446.9,402c2.7,3,5.2,4.5,11.1,9.9,6.2,5.5-5-5.2-6.1-6.3-1.1-.7-5.1-5.7-4.9-3.7h-.1Z"/>
  <path d="M445.2,417.3c0,0,0,0-.2,0h0c0,.1.2,0,.2,0Z"/>
  <path d="M442.2,429.5c1,2.3,12.7,11,16.4,14.7.5.6,3.7,3.4,1.2,1-.9-.4-17.2-18-17.6-15.5h.1ZM458,443.4h0c-.1-.1,0-.1.2-.1h-.2ZM458.3,443.7h0c-.1-.1,0-.1.2-.1h-.2Z"/>
  <path d="M460.1,413.9c0,0,0,0-.2,0h0c0,.1.2,0,.2,0Z"/>
  <path d="M481.1,382.2c0,0,0,0-.2,0h0c0,.1.2,0,.2,0Z"/>
  <path d="M372.2,459.5c2.2,3,14.5,12.3,18.5,16.4-.3.2-18.9-19.8-18.5-16.4h0ZM387.8,473.1h0c-.1-.1,0-.1.2-.1h-.2ZM388.1,473.5h0c-.1-.1,0-.1.2-.1h-.2Z"/>
  <path d="M334.4,487.6c1.3,2.2,12.2,10.6,13.6,12.1-.5-.4-10.9-11-13.5-12.5v.3h-.1Z"/>
  <path d="M385.7,449.2c.6,1.9,16.4,14.4,18.7,16.6.2-.1-2.8-2.5-2.4-2.4.7.4-10-9.8-13.7-13.1-1.5-1.2-2.3-2.3-2.4-1.2h-.1ZM401.3,463h0c-.1-.1,0-.1.2-.1h-.2ZM401.7,463.3c-.4,0,0-.3.1,0h-.1Z"/>
  <path d="M385.7,449.2c.6,1.9,16.4,14.4,18.7,16.6.2-.1-2.8-2.5-2.4-2.4.7.4-10-9.8-13.7-13.1-1.5-1.2-2.3-2.3-2.4-1.2h-.1ZM401.3,463h0c-.1-.1,0-.1.2-.1h-.2ZM401.7,463.3c-.4,0,0-.3.1,0h-.1Z"/>
  <path d="M466.3,384.6c.6,1.9,16.4,14.4,18.7,16.6.2-.1-2.8-2.5-2.4-2.4.7.4-10-9.8-13.7-13.1-1.5-1.2-2.3-2.3-2.4-1.2h-.1ZM481.9,398.3h0c-.1-.1,0-.1.2-.1h-.2ZM482.2,398.6c-.4,0,0-.3.1,0h-.1Z"/>
  <path d="M385.7,449.2c.6,1.9,16.4,14.4,18.7,16.6.2-.1-2.8-2.5-2.4-2.4.7.4-10-9.8-13.7-13.1-1.5-1.2-2.3-2.3-2.4-1.2h-.1ZM401.3,463h0c-.1-.1,0-.1.2-.1h-.2ZM401.7,463.3c-.4,0,0-.3.1,0h-.1Z"/>
  <path d="M355.7,484.1c.5,2.1,12.8,11.4,16.2,14.6,0,0,2.2,1.9,2.3,1.9-1.9-1.6-15.1-15.3-18.2-16.9-.2,0-.2.1-.2.3h-.1ZM371.3,497.9h0c-.1-.1,0-.1.2-.1h-.2ZM371.7,498.2h0c-.1-.1,0-.1.2-.1h-.2Z"/>
  <path d="M321.9,482.5c.5,2.1,12.8,11.4,16.2,14.6,0,0,2.2,1.9,2.3,1.9-1.9-1.6-15.1-15.3-18.2-16.9-.2,0-.2.1-.2.3h-.1ZM337.5,496.3h0c-.1-.1,0-.1.2-.1h-.2ZM338,496.6h0c-.1-.1,0-.1.2-.1h-.2Z"/>
  <path d="M354.3,429.4c.5,2.1,12.8,11.4,16.2,14.6,0,0,2.2,1.9,2.3,1.9-1.9-1.6-15.1-15.3-18.2-16.9-.2,0-.2.1-.2.3h-.1ZM369.8,443.2h0c-.1-.1,0-.1.2-.1h-.2ZM370.3,443.5h0c-.1-.1,0-.1.2-.1h-.2Z"/>
  <path d="M335,455.9c.5,2.1,12.8,11.4,16.2,14.6,0,0,2.2,1.9,2.3,1.9-1.9-1.6-15.1-15.3-18.2-16.9-.2,0-.2.1-.2.3h-.1ZM350.6,469.7h0c-.1-.1,0-.1.2-.1h-.2ZM350.9,470.1h0c-.1-.1,0-.1.2-.1h-.2Z"/>
  <path d="M374.6,473c1.9,3.1,11,9.9,15.4,14,0,0-1.6-1.7-1.8-1.7h0c.4.5-11.5-12-13.6-12.7v.3h0Z"/>
  <path d="M396.8,466.4c1.8,3,9.8,8.5,15,13.7-.3.2-14.2-15.7-15-13.7h0Z"/>
  <path d="M349.9,406.5c1.8,3,9.8,8.5,15,13.7-.3.2-14.2-15.7-15-13.7h0Z"/>
  <path d="M396.5,447.1c.7,1.9,12.8,10.9,14.3,12.7-.2,0-14.6-15.4-14.3-12.6h0ZM408.9,457.9c-.4,0,0-.3.1,0h-.1ZM409.2,458.2h0c-.1-.1,0-.1.2-.1h-.2ZM409.7,458.5h0c-.1-.1,0-.1.2-.1h-.2Z"/>
  <path d="M377.8,428.7c.7,1,9.4,6.7,10.6,7.6-1.2-1.1-6.7-5-8.4-6.4-1.4-.9-2.1-1.8-2.1-1.2h0ZM387,435.4c-.1,0,0,0,.1,0h-.1ZM387.2,435.6h.1-.1ZM387.4,435.8h.1-.1Z"/>
  <path d="M382.4,358c.7,1,9.4,6.7,10.6,7.6-1.2-1.1-6.7-5-8.4-6.4-1.4-.9-2.1-1.8-2.1-1.2h0ZM391.6,364.6c-.1,0,0,0,.1,0h-.1ZM391.8,364.8h.1-.1ZM392,365h.1-.1Z"/>
  <path d="M418.2,459.4c.7,1,9.4,6.7,10.6,7.6-1.2-1.1-6.7-5-8.4-6.4-1.4-.9-2.1-1.8-2.1-1.2h0ZM427.4,466c-.1,0,0,0,.1,0h-.1ZM427.6,466.1h.1-.1ZM427.9,466.3h.1-.1Z"/>
  <path d="M428,317.7l-1.4-1.1h0M426.9,316.8h.1-.1ZM427.2,317h.1-.1Z"/>
  <path d="M319.1,457c.7,1,9.4,6.7,10.6,7.6-1.2-1.1-6.7-5-8.4-6.4-1.4-.9-2.1-1.8-2.1-1.2h0ZM328.1,463.6c-.1,0,0,0,.1,0h-.1ZM328.5,463.8h.1-.1ZM328.7,464h.1-.1Z"/>
  <path d="M349.2,383.3c.7,1,9.4,6.7,10.6,7.6-1.2-1.1-6.7-5-8.4-6.4-1.4-.9-2.1-1.8-2.1-1.2h0ZM358.3,390c-.1,0,0,0,.1,0h-.1ZM358.6,390.1h.1-.1ZM358.9,390.3h.1-.1Z"/>
  <path d="M364.3,353c.7,1,9.4,6.7,10.6,7.6-1.2-1.1-6.7-5-8.4-6.4-1.4-.9-2.1-1.8-2.1-1.2h0ZM373.4,359.7c-.1,0,0,0,.1,0h-.1ZM373.6,359.8h.1-.1ZM374,360h.1-.1Z"/>
  <path d="M424.5,433.2c.7,1.9,12.8,10.9,14.3,12.7-.2,0-14.6-15.4-14.3-12.6h0ZM437,443.9c-.4,0,0-.3.1,0h-.1ZM437.3,444.3h0c-.1-.1,0-.1.2-.1h-.2ZM437.6,444.6h0c-.1-.1,0-.1.2-.1h-.2Z"/>
  <path d="M390.6,504h0c-.1-.1,0-.1.2-.1h-.2ZM391,504.4h0c-.1-.1,0-.1.2-.1h-.2Z"/>
  <path d="M390.9,476.2c0,0,0,0-.2,0h0c0,.1.2,0,.2,0Z"/>
  <path d="M378,513.1c0,.4,11.1,9.5,13.2,11-.2.2-13.2-13.2-13.1-11h-.1Z"/>
  <path d="M406.7,495.2c0,0,0,0-.2,0h0c0,.1.2,0,.2,0Z"/>
  <path d="M391.7,524.7c.1,0,.2,0,.1,0,0,0-.1-.1-.2-.1h0c0,.1.1.1.1.1Z"/>
  <path d="M392.1,525c0,0,0,0-.2,0h0c0,.1.2,0,.2,0Z"/>
  <path d="M418.4,520.4c0,0,0,0-.2,0h0c0,.1.2,0,.2,0Z"/>
  <path d="M485,237.1c2.2,3,14.5,12.3,18.5,16.4-.3.2-18.9-19.8-18.5-16.4h0ZM500.7,250.7h0c-.1-.1,0-.1.2-.1h-.2ZM501.1,251h0c-.1-.1,0-.1.2-.1h-.2Z"/>
  <path d="M447.2,265.2c1.3,2.2,12.2,10.6,13.6,12.1-.5-.4-10.9-11-13.5-12.5v.3h-.1Z"/>
  <path d="M484,322.8c1.3,2.2,12.2,10.6,13.6,12.1-.5-.4-10.9-11-13.5-12.5v.3h-.1Z"/>
  <path d="M460.9,281.8c1.3,2.2,12.2,10.6,13.6,12.1-.5-.4-10.9-11-13.5-12.5v.3h-.1Z"/>
  <path d="M442.4,199.7c1.3,2.2,12.2,10.6,13.6,12.1-.5-.4-10.9-11-13.5-12.5v.3h-.1Z"/>
  <path d="M330.5,426.7c1.3,2.2,12.2,10.6,13.6,12.1-.5-.4-10.9-11-13.5-12.5v.3h-.1Z"/>
  <path d="M498.7,226.8c.6,1.9,16.4,14.4,18.7,16.6.2-.1-2.8-2.5-2.4-2.4.7.4-10-9.8-13.7-13.1-1.5-1.2-2.3-2.3-2.4-1.2h-.1ZM514.3,240.5h0c-.1-.1,0-.1.2-.1h-.2ZM514.6,240.8c-.4,0,0-.3.1,0h-.1Z"/>
  <path d="M468.7,261.6c.5,2.1,12.8,11.4,16.2,14.6,0,0,2.2,1.9,2.3,1.9-1.9-1.6-15.1-15.3-18.2-16.9-.2,0-.2.1-.2.3h-.1ZM484.3,275.4h0c-.1-.1,0-.1.2-.1h-.2ZM484.6,275.8h0c-.1-.1,0-.1.2-.1h-.2Z"/>
  <path d="M434.9,260c.5,2.1,12.8,11.4,16.2,14.6,0,0,2.2,1.9,2.3,1.9-1.9-1.6-15.1-15.3-18.2-16.9-.2,0-.2.1-.2.3h-.1ZM450.5,273.8h0c-.1-.1,0-.1.2-.1h-.2ZM450.9,274.3h0c-.1-.1,0-.1.2-.1h-.2Z"/>
  <path d="M467.2,206.9c.5,2.1,12.8,11.4,16.2,14.6,0,0,2.2,1.9,2.3,1.9-1.9-1.6-15.1-15.3-18.2-16.9-.2,0-.2.1-.2.3h-.1ZM482.8,220.7h0c-.1-.1,0-.1.2-.1h-.2ZM483.3,221.2h0c-.1-.1,0-.1.2-.1h-.2Z"/>
  <path d="M448,233.4c.5,2.1,12.8,11.4,16.2,14.6,0,0,2.2,1.9,2.3,1.9-1.9-1.6-15.1-15.3-18.2-16.9-.2,0-.2.1-.2.3h-.1ZM463.5,247.2h0c-.1-.1,0-.1.2-.1h-.2ZM463.9,247.7h0c-.1-.1,0-.1.2-.1h-.2Z"/>
  <path d="M487.5,250.5c1.9,3.1,11,9.9,15.4,14,0,0-1.6-1.7-1.8-1.7h0c.4.5-11.5-12-13.6-12.7v.3h0Z"/>
  <path d="M509.6,244c1.8,3,9.8,8.5,15,13.7-.3.2-14.2-15.7-15-13.7h0Z"/>
  <path d="M462.9,184c1.8,3,9.8,8.5,15,13.7-.3.2-14.2-15.7-15-13.7h0Z"/>
  <path d="M509.4,224.6c.7,1.9,12.8,10.9,14.3,12.7-.2,0-14.6-15.4-14.3-12.6h0ZM521.9,235.4c-.4,0,0-.3.1,0h-.1ZM522.2,235.7h0c-.1-.1,0-.1.2-.1h-.2ZM522.6,236h0c-.1-.1,0-.1.2-.1h-.2Z"/>
  <path d="M487.9,267.7c3,4.4,13.3,11.4,17,15.3,1.9,1.7,2,1.7.5.3-.5-.5-1.1-1-1.2-1q-.2,0,0,0c.2,0-3.3-3.4-10.7-10.2-1.8-1.3-5-5.7-5.7-4.3h0ZM503.5,281.6h0c-.1-.1,0-.1.2-.1h-.2ZM503.9,282h0c-.1-.1,0-.1.2-.1h-.2Z"/>
  <path d="M503.7,253.7c0,0,0,0-.2,0h0c0,.1.2,0,.2,0Z"/>
  <path d="M506,261.2c2.1,2.2,10.8,9,13.5,11.3-2.4-1.9-13.7-13.6-13.5-11.3h0Z"/>
  <path d="M491,290.6c0,.4,11.1,9.5,13.2,11-.2.2-13.2-13.2-13.1-11h-.1Z"/>
  <path d="M512.7,281.4c1.9,3,14.9,12.9,17.6,15.7,1.7,1.2-6.6-6.6-9.8-9.6-2.7-2.2-7.5-8.2-7.8-6h0ZM528.7,295.4h0c-.1-.1,0-.1.2-.1h-.2ZM529,295.7h0c-.1-.1,0-.1.2-.1h-.2Z"/>
  <path d="M519.6,272.7c0,0,0,0-.2,0h0c0,.1.2,0,.2,0Z"/>
  <path d="M504.7,302.2c.1,0,.2,0,.1,0,0,0-.1-.1-.2-.1h0c0,.1.1.1.1.1Z"/>
  <path d="M505,302.6c0,0,0,0-.2,0h0c0,.1.2,0,.2,0Z"/>
  <path d="M531.4,298c0,0,0,0-.2,0h0c0,.1.2,0,.2,0Z"/>
  <polyline class="st0" points="415.4 532.1 303 465.7 452.5 191.7 564.9 258"/>
  <line class="st0" x1="564.9" y1="258" x2="415.4" y2="532.1"/>
  <path d="M434.8,321.3c2.2,3,14.5,12.3,18.5,16.4-.3.2-18.9-19.8-18.5-16.4h0ZM450.4,334.9h0c-.1-.1,0-.1.2-.1h-.2ZM450.8,335.3h0c-.1-.1,0-.1.2-.1h-.2Z"/>
  <path d="M403.4,426.2c2.2,3,14.5,12.3,18.5,16.4-.3.2-18.9-19.8-18.5-16.4h0ZM419.1,439.8h0c-.1-.1,0-.1.2-.1h-.2ZM419.5,440.1h0c-.1-.1,0-.1.2-.1h-.2Z"/>
  <path d="M407.3,382c1.3,2.2,12.2,10.6,13.6,12.1-.5-.4-10.9-11-13.5-12.5v.3h-.1Z"/>
  <path d="M408.6,402.1c1.3,2.2,12.2,10.6,13.6,12.1-.5-.4-10.9-11-13.5-12.5v.3h-.1Z"/>
  <path d="M379.9,392.5c1.3,2.2,12.2,10.6,13.6,12.1-.5-.4-10.9-11-13.5-12.5v.3h-.1Z"/>
  <path d="M376.6,409.4c1.3,2.2,12.2,10.6,13.6,12.1-.5-.4-10.9-11-13.5-12.5v.3h-.1Z"/>
  <path d="M361.9,374.3c1.3,2.2,12.2,10.6,13.6,12.1-.5-.4-10.9-11-13.5-12.5v.3h-.1Z"/>
  <path d="M490,347.9c1.3,2.2,12.2,10.6,13.6,12.1-.5-.4-10.9-11-13.5-12.5v.3h-.1Z"/>
  <path d="M397,349.4c1.3,2.2,12.2,10.6,13.6,12.1-.5-.4-10.9-11-13.5-12.5v.3h-.1Z"/>
  <path d="M448.4,311c.6,1.9,16.4,14.4,18.7,16.6.2-.1-2.8-2.5-2.4-2.4.7.4-10-9.8-13.7-13.1-1.5-1.2-2.3-2.3-2.4-1.2h-.1ZM464,324.7h0c-.1-.1,0-.1.2-.1h-.2ZM464.5,325.1c-.4,0,0-.3.1,0h-.1Z"/>
  <path d="M418.4,369.3c.5,2.1,12.8,11.4,16.2,14.6,0,0,2.2,1.9,2.3,1.9-1.9-1.6-15.1-15.3-18.2-16.9-.2,0-.2.1-.2.3h-.1ZM433.9,383.1h0c-.1-.1,0-.1.2-.1h-.2ZM434.4,383.5h0c-.1-.1,0-.1.2-.1h-.2Z"/>
  <path d="M384.1,378.4c.5,2.1,12.8,11.4,16.2,14.6,0,0,2.2,1.9,2.3,1.9-1.9-1.6-15.1-15.3-18.2-16.9-.2,0-.2.1-.2.3h-.1ZM399.6,392.2h0c-.1-.1,0-.1.2-.1h-.2ZM400,392.5h0c-.1-.1,0-.1.2-.1h-.2Z"/>
  <path d="M418.4,345.9c.5,2.1,12.8,11.4,16.2,14.6,0,0,2.2,1.9,2.3,1.9-1.9-1.6-15.1-15.3-18.2-16.9-.2,0-.2.1-.2.3h-.1ZM434,359.7h0c-.1-.1,0-.1.2-.1h-.2ZM434.4,360h0c-.1-.1,0-.1.2-.1h-.2Z"/>
  <path d="M384.6,344.3c.5,2.1,12.8,11.4,16.2,14.6,0,0,2.2,1.9,2.3,1.9-1.9-1.6-15.1-15.3-18.2-16.9-.2,0-.2.1-.2.3h-.1ZM400.3,358.1h0c-.1-.1,0-.1.2-.1h-.2ZM400.7,358.5h0c-.1-.1,0-.1.2-.1h-.2Z"/>
  <path d="M437.2,334.8c1.9,3.1,11,9.9,15.4,14,0,0-1.6-1.7-1.8-1.7h0c.4.5-11.5-12-13.6-12.7v.3h0Z"/>
  <path d="M459.4,328.2c1.8,3,9.8,8.5,15,13.7-.3.2-14.2-15.7-15-13.7h0Z"/>
  <path d="M497.8,314.5c1.8,3,9.8,8.5,15,13.7-.3.2-14.2-15.7-15-13.7h0Z"/>
  <path d="M459.2,308.9c.7,1.9,12.8,10.9,14.3,12.7-.2,0-14.6-15.4-14.3-12.6h0ZM471.6,319.7c-.4,0,0-.3.1,0h-.1ZM472,320h0c-.1-.1,0-.1.2-.1h-.2ZM472.4,320.3h0c-.1-.1,0-.1.2-.1h-.2Z"/>
  <path d="M437.6,352c3,4.4,13.3,11.4,17,15.3,1.9,1.7,2,1.7.5.3-.5-.5-1.1-1-1.2-1q-.2,0,0,0c.2,0-3.3-3.4-10.7-10.2-1.8-1.3-5-5.7-5.7-4.3h0ZM453.3,365.8h0c-.1-.1,0-.1.2-.1h-.2ZM453.7,366.2h0c-.1-.1,0-.1.2-.1h-.2Z"/>
  <path d="M453.5,337.9c0,0,0,0-.2,0h0c0,.1.2,0,.2,0Z"/>
  <path d="M427.4,388.8c1.3,1.8,7,6.1,12.6,11.2-1.3-.7-12.7-13.6-12.6-11.1h0Z"/>
  <path d="M455.7,345.4c2.1,2.2,10.8,9,13.5,11.3-2.4-1.9-13.7-13.6-13.5-11.3h0Z"/>
  <path d="M426.5,400.8c.9,1.9,14.6,12.7,18.5,16.3-2.6-2.4-14-14-18.1-16.8-.3,0-.3.2-.3.5h-.1ZM442.6,414.7h0c-.1-.1,0-.1.2-.1h-.2ZM442.8,415h0c-.1-.1,0-.1.2-.1h-.2Z"/>
  <path d="M440.7,374.9c0,.4,11.1,9.5,13.2,11-.2.2-13.2-13.2-13.1-11h-.1Z"/>
  <path d="M437,386.2c0,0,0,0-.2,0h0c0,.1.2,0,.2,0Z"/>
  <path d="M440.2,400.3c0,0,0,0-.2,0h0c0,.1.2,0,.2,0Z"/>
  <path d="M462.4,365.7c1.9,3,14.9,12.9,17.6,15.7,1.7,1.2-6.6-6.6-9.8-9.6-2.7-2.2-7.5-8.2-7.8-6h0ZM478.4,379.6h0c-.1-.1,0-.1.2-.1h-.2ZM478.7,379.9h0c-.1-.1,0-.1.2-.1h-.2Z"/>
  <path d="M469.3,356.9c0,0,0,0-.2,0h0c0,.1.2,0,.2,0Z"/>
  <path d="M450,392.7c2.4,3.6,12.3,10.5,17.3,15.5,1.5,1.3,1.4,1.3-.8-1-.4.1-16.3-17.1-16.6-14.5h.1ZM465.8,406.6h0c-.1-.1,0-.1.2-.1h-.2ZM466.1,406.9h0c-.1-.1,0-.1.2-.1h-.2Z"/>
  <path d="M454.4,386.5c.1,0,.2,0,.1,0,0,0-.1-.1-.2-.1h0c0,.1.1.1.1.1Z"/>
  <path d="M454.7,386.8c0,0,0,0-.2,0h0c0,.1.2,0,.2,0Z"/>
  <path d="M446.9,402c2.7,3,5.2,4.5,11.1,9.9,6.2,5.5-5-5.2-6.1-6.3-1.1-.7-5.1-5.7-4.9-3.7h-.1Z"/>
  <path d="M445.2,417.3c0,0,0,0-.2,0h0c0,.1.2,0,.2,0Z"/>
  <path d="M442.2,429.5c1,2.3,12.7,11,16.4,14.7.5.6,3.7,3.4,1.2,1-.9-.4-17.2-18-17.6-15.5h.1ZM458,443.4h0c-.1-.1,0-.1.2-.1h-.2ZM458.3,443.7h0c-.1-.1,0-.1.2-.1h-.2Z"/>
  <path d="M460.1,413.9c0,0,0,0-.2,0h0c0,.1.2,0,.2,0Z"/>
  <path d="M481.1,382.2c0,0,0,0-.2,0h0c0,.1.2,0,.2,0Z"/>
  <path d="M372.2,459.5c2.2,3,14.5,12.3,18.5,16.4-.3.2-18.9-19.8-18.5-16.4h0ZM387.8,473.1h0c-.1-.1,0-.1.2-.1h-.2ZM388.1,473.5h0c-.1-.1,0-.1.2-.1h-.2Z"/>
  <path d="M334.4,487.6c1.3,2.2,12.2,10.6,13.6,12.1-.5-.4-10.9-11-13.5-12.5v.3h-.1Z"/>
  <path d="M385.7,449.2c.6,1.9,16.4,14.4,18.7,16.6.2-.1-2.8-2.5-2.4-2.4.7.4-10-9.8-13.7-13.1-1.5-1.2-2.3-2.3-2.4-1.2h-.1ZM401.3,463h0c-.1-.1,0-.1.2-.1h-.2ZM401.7,463.3c-.4,0,0-.3.1,0h-.1Z"/>
  <path d="M385.7,449.2c.6,1.9,16.4,14.4,18.7,16.6.2-.1-2.8-2.5-2.4-2.4.7.4-10-9.8-13.7-13.1-1.5-1.2-2.3-2.3-2.4-1.2h-.1ZM401.3,463h0c-.1-.1,0-.1.2-.1h-.2ZM401.7,463.3c-.4,0,0-.3.1,0h-.1Z"/>
  <path d="M466.3,384.6c.6,1.9,16.4,14.4,18.7,16.6.2-.1-2.8-2.5-2.4-2.4.7.4-10-9.8-13.7-13.1-1.5-1.2-2.3-2.3-2.4-1.2h-.1ZM481.9,398.3h0c-.1-.1,0-.1.2-.1h-.2ZM482.2,398.6c-.4,0,0-.3.1,0h-.1Z"/>
  <path d="M385.7,449.2c.6,1.9,16.4,14.4,18.7,16.6.2-.1-2.8-2.5-2.4-2.4.7.4-10-9.8-13.7-13.1-1.5-1.2-2.3-2.3-2.4-1.2h-.1ZM401.3,463h0c-.1-.1,0-.1.2-.1h-.2ZM401.7,463.3c-.4,0,0-.3.1,0h-.1Z"/>
  <path d="M355.7,484.1c.5,2.1,12.8,11.4,16.2,14.6,0,0,2.2,1.9,2.3,1.9-1.9-1.6-15.1-15.3-18.2-16.9-.2,0-.2.1-.2.3h-.1ZM371.3,497.9h0c-.1-.1,0-.1.2-.1h-.2ZM371.7,498.2h0c-.1-.1,0-.1.2-.1h-.2Z"/>
  <path d="M321.9,482.5c.5,2.1,12.8,11.4,16.2,14.6,0,0,2.2,1.9,2.3,1.9-1.9-1.6-15.1-15.3-18.2-16.9-.2,0-.2.1-.2.3h-.1ZM337.5,496.3h0c-.1-.1,0-.1.2-.1h-.2ZM338,496.6h0c-.1-.1,0-.1.2-.1h-.2Z"/>
  <path d="M354.3,429.4c.5,2.1,12.8,11.4,16.2,14.6,0,0,2.2,1.9,2.3,1.9-1.9-1.6-15.1-15.3-18.2-16.9-.2,0-.2.1-.2.3h-.1ZM369.8,443.2h0c-.1-.1,0-.1.2-.1h-.2ZM370.3,443.5h0c-.1-.1,0-.1.2-.1h-.2Z"/>
  <path d="M335,455.9c.5,2.1,12.8,11.4,16.2,14.6,0,0,2.2,1.9,2.3,1.9-1.9-1.6-15.1-15.3-18.2-16.9-.2,0-.2.1-.2.3h-.1ZM350.6,469.7h0c-.1-.1,0-.1.2-.1h-.2ZM350.9,470.1h0c-.1-.1,0-.1.2-.1h-.2Z"/>
  <path d="M374.6,473c1.9,3.1,11,9.9,15.4,14,0,0-1.6-1.7-1.8-1.7h0c.4.5-11.5-12-13.6-12.7v.3h0Z"/>
  <path d="M396.8,466.4c1.8,3,9.8,8.5,15,13.7-.3.2-14.2-15.7-15-13.7h0Z"/>
  <path d="M349.9,406.5c1.8,3,9.8,8.5,15,13.7-.3.2-14.2-15.7-15-13.7h0Z"/>
  <path d="M396.5,447.1c.7,1.9,12.8,10.9,14.3,12.7-.2,0-14.6-15.4-14.3-12.6h0ZM408.9,457.9c-.4,0,0-.3.1,0h-.1ZM409.2,458.2h0c-.1-.1,0-.1.2-.1h-.2ZM409.7,458.5h0c-.1-.1,0-.1.2-.1h-.2Z"/>
  <path d="M377.8,428.7c.7,1,9.4,6.7,10.6,7.6-1.2-1.1-6.7-5-8.4-6.4-1.4-.9-2.1-1.8-2.1-1.2h0ZM387,435.4c-.1,0,0,0,.1,0h-.1ZM387.2,435.6h.1-.1ZM387.4,435.8h.1-.1Z"/>
  <path d="M382.4,358c.7,1,9.4,6.7,10.6,7.6-1.2-1.1-6.7-5-8.4-6.4-1.4-.9-2.1-1.8-2.1-1.2h0ZM391.6,364.6c-.1,0,0,0,.1,0h-.1ZM391.8,364.8h.1-.1ZM392,365h.1-.1Z"/>
  <path d="M418.2,459.4c.7,1,9.4,6.7,10.6,7.6-1.2-1.1-6.7-5-8.4-6.4-1.4-.9-2.1-1.8-2.1-1.2h0ZM427.4,466c-.1,0,0,0,.1,0h-.1ZM427.6,466.1h.1-.1ZM427.9,466.3h.1-.1Z"/>
  <path d="M428,317.7l-1.4-1.1h0M426.9,316.8h.1-.1ZM427.2,317h.1-.1Z"/>
  <path d="M319.1,457c.7,1,9.4,6.7,10.6,7.6-1.2-1.1-6.7-5-8.4-6.4-1.4-.9-2.1-1.8-2.1-1.2h0ZM328.1,463.6c-.1,0,0,0,.1,0h-.1ZM328.5,463.8h.1-.1ZM328.7,464h.1-.1Z"/>
  <path d="M349.2,383.3c.7,1,9.4,6.7,10.6,7.6-1.2-1.1-6.7-5-8.4-6.4-1.4-.9-2.1-1.8-2.1-1.2h0ZM358.3,390c-.1,0,0,0,.1,0h-.1ZM358.6,390.1h.1-.1ZM358.9,390.3h.1-.1Z"/>
  <path d="M364.3,353c.7,1,9.4,6.7,10.6,7.6-1.2-1.1-6.7-5-8.4-6.4-1.4-.9-2.1-1.8-2.1-1.2h0ZM373.4,359.7c-.1,0,0,0,.1,0h-.1ZM373.6,359.8h.1-.1ZM374,360h.1-.1Z"/>
  <path d="M424.5,433.2c.7,1.9,12.8,10.9,14.3,12.7-.2,0-14.6-15.4-14.3-12.6h0ZM437,443.9c-.4,0,0-.3.1,0h-.1ZM437.3,444.3h0c-.1-.1,0-.1.2-.1h-.2ZM437.6,444.6h0c-.1-.1,0-.1.2-.1h-.2Z"/>
  <path d="M390.6,504h0c-.1-.1,0-.1.2-.1h-.2ZM391,504.4h0c-.1-.1,0-.1.2-.1h-.2Z"/>
  <path d="M390.9,476.2c0,0,0,0-.2,0h0c0,.1.2,0,.2,0Z"/>
  <path d="M378,513.1c0,.4,11.1,9.5,13.2,11-.2.2-13.2-13.2-13.1-11h-.1Z"/>
  <path d="M406.7,495.2c0,0,0,0-.2,0h0c0,.1.2,0,.2,0Z"/>
  <path d="M391.7,524.7c.1,0,.2,0,.1,0,0,0-.1-.1-.2-.1h0c0,.1.1.1.1.1Z"/>
  <path d="M392.1,525c0,0,0,0-.2,0h0c0,.1.2,0,.2,0Z"/>
  <path d="M418.4,520.4c0,0,0,0-.2,0h0c0,.1.2,0,.2,0Z"/>
  <path d="M485,237.1c2.2,3,14.5,12.3,18.5,16.4-.3.2-18.9-19.8-18.5-16.4h0ZM500.7,250.7h0c-.1-.1,0-.1.2-.1h-.2ZM501.1,251h0c-.1-.1,0-.1.2-.1h-.2Z"/>
  <path d="M447.2,265.2c1.3,2.2,12.2,10.6,13.6,12.1-.5-.4-10.9-11-13.5-12.5v.3h-.1Z"/>
  <path d="M484,322.8c1.3,2.2,12.2,10.6,13.6,12.1-.5-.4-10.9-11-13.5-12.5v.3h-.1Z"/>
  <path d="M460.9,281.8c1.3,2.2,12.2,10.6,13.6,12.1-.5-.4-10.9-11-13.5-12.5v.3h-.1Z"/>
  <path d="M442.4,199.7c1.3,2.2,12.2,10.6,13.6,12.1-.5-.4-10.9-11-13.5-12.5v.3h-.1Z"/>
  <path d="M330.5,426.7c1.3,2.2,12.2,10.6,13.6,12.1-.5-.4-10.9-11-13.5-12.5v.3h-.1Z"/>
  <path d="M498.7,226.8c.6,1.9,16.4,14.4,18.7,16.6.2-.1-2.8-2.5-2.4-2.4.7.4-10-9.8-13.7-13.1-1.5-1.2-2.3-2.3-2.4-1.2h-.1ZM514.3,240.5h0c-.1-.1,0-.1.2-.1h-.2ZM514.6,240.8c-.4,0,0-.3.1,0h-.1Z"/>
  <path d="M468.7,261.6c.5,2.1,12.8,11.4,16.2,14.6,0,0,2.2,1.9,2.3,1.9-1.9-1.6-15.1-15.3-18.2-16.9-.2,0-.2.1-.2.3h-.1ZM484.3,275.4h0c-.1-.1,0-.1.2-.1h-.2ZM484.6,275.8h0c-.1-.1,0-.1.2-.1h-.2Z"/>
  <path d="M434.9,260c.5,2.1,12.8,11.4,16.2,14.6,0,0,2.2,1.9,2.3,1.9-1.9-1.6-15.1-15.3-18.2-16.9-.2,0-.2.1-.2.3h-.1ZM450.5,273.8h0c-.1-.1,0-.1.2-.1h-.2ZM450.9,274.3h0c-.1-.1,0-.1.2-.1h-.2Z"/>
  <path d="M467.2,206.9c.5,2.1,12.8,11.4,16.2,14.6,0,0,2.2,1.9,2.3,1.9-1.9-1.6-15.1-15.3-18.2-16.9-.2,0-.2.1-.2.3h-.1ZM482.8,220.7h0c-.1-.1,0-.1.2-.1h-.2ZM483.3,221.2h0c-.1-.1,0-.1.2-.1h-.2Z"/>
  <path d="M448,233.4c.5,2.1,12.8,11.4,16.2,14.6,0,0,2.2,1.9,2.3,1.9-1.9-1.6-15.1-15.3-18.2-16.9-.2,0-.2.1-.2.3h-.1ZM463.5,247.2h0c-.1-.1,0-.1.2-.1h-.2ZM463.9,247.7h0c-.1-.1,0-.1.2-.1h-.2Z"/>
  <path d="M487.5,250.5c1.9,3.1,11,9.9,15.4,14,0,0-1.6-1.7-1.8-1.7h0c.4.5-11.5-12-13.6-12.7v.3h0Z"/>
  <path d="M509.6,244c1.8,3,9.8,8.5,15,13.7-.3.2-14.2-15.7-15-13.7h0Z"/>
  <path d="M462.9,184c1.8,3,9.8,8.5,15,13.7-.3.2-14.2-15.7-15-13.7h0Z"/>
  <path d="M509.4,224.6c.7,1.9,12.8,10.9,14.3,12.7-.2,0-14.6-15.4-14.3-12.6h0ZM521.9,235.4c-.4,0,0-.3.1,0h-.1ZM522.2,235.7h0c-.1-.1,0-.1.2-.1h-.2ZM522.6,236h0c-.1-.1,0-.1.2-.1h-.2Z"/>
  <path d="M487.9,267.7c3,4.4,13.3,11.4,17,15.3,1.9,1.7,2,1.7.5.3-.5-.5-1.1-1-1.2-1q-.2,0,0,0c.2,0-3.3-3.4-10.7-10.2-1.8-1.3-5-5.7-5.7-4.3h0ZM503.5,281.6h0c-.1-.1,0-.1.2-.1h-.2ZM503.9,282h0c-.1-.1,0-.1.2-.1h-.2Z"/>
  <path d="M503.7,253.7c0,0,0,0-.2,0h0c0,.1.2,0,.2,0Z"/>
  <path d="M506,261.2c2.1,2.2,10.8,9,13.5,11.3-2.4-1.9-13.7-13.6-13.5-11.3h0Z"/>
  <path d="M491,290.6c0,.4,11.1,9.5,13.2,11-.2.2-13.2-13.2-13.1-11h-.1Z"/>
  <path d="M512.7,281.4c1.9,3,14.9,12.9,17.6,15.7,1.7,1.2-6.6-6.6-9.8-9.6-2.7-2.2-7.5-8.2-7.8-6h0ZM528.7,295.4h0c-.1-.1,0-.1.2-.1h-.2ZM529,295.7h0c-.1-.1,0-.1.2-.1h-.2Z"/>
  <path d="M519.6,272.7c0,0,0,0-.2,0h0c0,.1.2,0,.2,0Z"/>
  <path d="M504.7,302.2c.1,0,.2,0,.1,0,0,0-.1-.1-.2-.1h0c0,.1.1.1.1.1Z"/>
  <path d="M505,302.6c0,0,0,0-.2,0h0c0,.1.2,0,.2,0Z"/>
  <path d="M531.4,298c0,0,0,0-.2,0h0c0,.1.2,0,.2,0Z"/>
  <polyline class="st0" points="415.4 532.1 303 465.7 452.5 191.7 564.9 258"/>
  <line class="st0" x1="564.9" y1="258" x2="415.4" y2="532.1"/>
  <g id="Light-Rain-2" serif:id="Light Rain 2">
    <path d="M167.6,431.9c-1.6,0-10.2,3.4-11.5,3.6,0,0,3.1-.7,7.7-2,3.2-1,4.2-1,3.8-1.6h0Z"/>
    <path d="M217.1,379.9c-1.6,0-10.2,3.4-11.5,3.6,0,0,3.1-.7,7.7-2,3.2-1,4.2-1,3.8-1.6h0Z"/>
    <path d="M232.7,366.4c-1.6,0-10.2,3.4-11.5,3.6,0,0,3.1-.7,7.7-2,3.2-1,4.2-1,3.8-1.6h0Z"/>
    <path d="M224.7,358.4c-1.6,0-10.2,3.4-11.5,3.6,0,0,3.1-.7,7.7-2,3.2-1,4.2-1,3.8-1.6h0Z"/>
    <path d="M249.1,362.5c-1.6,0-10.2,3.4-11.5,3.6,0,0,3.1-.7,7.7-2,3.2-1,4.2-1,3.8-1.6h0Z"/>
    <path d="M201.8,448.8c-1.6,0-10.2,3.4-11.5,3.6,0,0,3.1-.7,7.7-2,3.2-1,4.2-1,3.8-1.6h0Z"/>
    <path d="M249.8,392.1c-1.6,0-10.2,3.4-11.5,3.6,0,0,3.1-.7,7.7-2,3.2-1,4.2-1,3.8-1.6h0Z"/>
    <path d="M252.1,436.1c-1.3-.4-13.6,4.4-15.8,4.9,0,0,2-.5,2.1-.6,0,0,.1,0,0,0-1.3.6,9.4-2.5,12.1-3.3,1.2-.4,2.1-.4,1.5-1.1h.1ZM239,440.4h0s.1,0,0,0h-.1.1ZM238.7,440.5h0c.1,0,0,0-.1,0h.1Z"/>
    <path d="M244,405.9c-1.4-.5-10.8,3.5-13.7,4.2,0,0-1.9.7-1.9.6,1.1-.6,14.8-3.1,15.6-4.8h0ZM230.9,410.1h0s.1,0,0,0h-.1.1ZM230.6,410.2h0s.1,0,0,0h-.1.1Z"/>
    <path d="M257.1,386.7c-1.4-.5-10.8,3.5-13.7,4.2,0,0-1.9.7-1.9.6,1.1-.6,14.8-3.1,15.6-4.8h0ZM244,390.8h0s.1,0,0,0h-.1.1ZM243.7,390.9h0s.1,0,0,0h-.1.1Z"/>
    <path d="M282.2,421.1c-1.4-.5-10.8,3.5-13.7,4.2,0,0-1.9.7-1.9.6,1.1-.6,14.8-3.1,15.6-4.8h0ZM269,425.3h0s.1,0,0,0h-.1.1ZM268.7,425.4h0s.1,0,0,0h-.1.1Z"/>
    <path d="M266.8,403.9c-1.4-.5-10.8,3.5-13.7,4.2,0,0-1.9.7-1.9.6,1.1-.6,14.8-3.1,15.6-4.8h0ZM253.6,408.2h0s.1,0,0,0h-.1.1ZM253.3,408.3h0s.1,0,0,0h-.1.1Z"/>
    <path d="M243.2,421c-2.4-.1-9.3,3-13.2,4,0,0,1.5-.3,1.5-.4h0c-.5,0,11.1-2.2,11.7-3.5h-.1c0-.1.1-.1.1-.1Z"/>
    <path d="M232.3,463.9c-2.3,0-8.2,2.7-12.9,3.9.2-.3,12.6-2.7,13-3.6,0,0,0-.1-.1-.2h0Z"/>
    <path d="M288.2,430.5c-2.3,0-8.2,2.7-12.9,3.9.2-.3,12.6-2.7,13-3.6,0,0,0-.1-.1-.2h0Z"/>
    <path d="M235.6,429.4h0s0,0,.1,0h-.1Z"/>
    <path d="M230.8,428c-2,.5-8.9,3.2-11.1,3.9,2.8-.7,10.6-2.8,11.4-3.6,0,0-.2-.2-.3-.3Z"/>
    <path d="M215.5,402.3h0s0,0,.1,0h-.1Z"/>
    <path d="M206.7,399h0s0,0,.1,0h-.1Z"/>
    <path d="M219.6,431.8h0s0,0,.1,0h-.1Z"/>
    <path d="M208.9,412.4c-.1,0,0,0,.1,0h-.1Z"/>
    <path d="M208.6,412.5h0s0,0,.1,0h-.1Z"/>
    <path d="M216,394.6c-2.6.5-4.4,1.5-9.4,2.9-5.2,1.6,4.6-1,5.7-1.4,1-.4,4.5-.8,3.7-1.6h0Z"/>
    <path d="M195.6,395.8h0s0,0,.1,0h-.1Z"/>
    <path d="M190.1,389.6c-1.7-.3-10.6,3.6-13.9,4.2-.3,0-1,.1-1.4.3.5.1,12.5-3.1,15.3-4.3,0-.1,0-.2-.1-.4v.2ZM176.8,393.9h0s.1,0,0,0h-.1.1ZM176.6,394h0s.1,0,0,0h-.1.1Z"/>
    <path d="M192.1,405.8h0s0,0,.1,0h-.1Z"/>
    <path d="M201.6,429.6h0s0,0,.1,0h-.1Z"/>
    <path d="M205.8,420c-1.3-.4-13.6,4.4-15.8,4.9,0,0,2-.5,2.1-.6,0,0,.1,0,0,0-1.3.6,9.4-2.5,12.1-3.3,1.2-.4,2.1-.4,1.5-1.1h.1ZM192.7,424.2h0s.1,0,0,0h-.1.1ZM192.4,424.3h0c.1,0,0,0-.1,0h.1Z"/>
    <path d="M274.1,393.1c-1.3-.4-13.6,4.4-15.8,4.9,0,0,2-.5,2.1-.6,0,0,.1,0,0,0-1.3.6,9.4-2.5,12.1-3.3,1.2-.4,2.1-.4,1.5-1.1h.1ZM261,397.3h0s.1,0,0,0h-.1.1ZM260.7,397.4h0c.1,0,0,0-.1,0h.1Z"/>
    <path d="M191.8,319.1c-1.4-.5-10.8,3.5-13.7,4.2,0,0-1.9.7-1.9.6,1.1-.6,14.8-3.1,15.6-4.8h0ZM178.6,323.3h0s.1,0,0,0h-.1.1ZM178.3,323.4h0s.1,0,0,0h-.1.1Z"/>
    <path d="M214.6,317.1c-1.4-.5-10.8,3.5-13.7,4.2,0,0-1.9.7-1.9.6,1.1-.6,14.8-3.1,15.6-4.8h0ZM201.4,321.4h0s.1,0,0,0h-.1.1ZM201.1,321.5h0s.1,0,0,0h-.1.1Z"/>
    <path d="M236,343.8c-2.3,0-8.2,2.7-12.9,3.9.2-.3,12.6-2.7,13-3.6,0,0,0-.1-.1-.2h0Z"/>
    <path d="M197.1,356.4c-1.2-.2-10.5,3.5-11.9,3.9.4-.1,13.4-2.8,11.9-3.9h0ZM186.8,359.9h0c.1,0,0,0-.1,0h.1ZM186.4,359.9h0s.1,0,0,0h-.1.1ZM186.1,360h0s.1,0,0,0h-.1.1Z"/>
    <path d="M152.9,386.6c-.9,0-7,3.1-8,3.5,1.3-.5,6.4-2.6,8-3.3,0,0,0-.2,0-.2ZM145.9,389.7h0ZM145.8,389.7h0ZM145.6,389.8h0Z"/>
    <path d="M250.4,380.4c-.9,0-7,3.1-8,3.5,1.3-.5,6.4-2.6,8-3.3,0,0,0-.2,0-.2ZM243.6,383.3h0ZM243.4,383.4h0ZM243.1,383.5h0Z"/>
    <path d="M263.8,418.4c-.9,0-7,3.1-8,3.5,1.3-.5,6.4-2.6,8-3.3,0,0,0-.2,0-.2ZM256.9,421.3h0ZM256.8,421.5h0ZM256.6,421.6h0Z"/>
    <path d="M248.7,351.8c-.9,0-7,3.1-8,3.5,1.3-.5,6.4-2.6,8-3.3,0,0,0-.2,0-.2ZM241.9,354.7h0ZM241.7,354.8h0ZM241.5,354.9h0Z"/>
    <path d="M259.7,371.6c-.9,0-7,3.1-8,3.5,1.3-.5,6.4-2.6,8-3.3,0,0,0-.2,0-.2ZM252.9,374.6h0ZM252.6,374.7h0ZM252.4,374.8h0Z"/>
    <path d="M183.5,342.6h0s0,0,.1,0h-.1Z"/>
    <path d="M119.6,345.5c-.8-.1-8.1,2.9-10.9,3.7.8-.2,8.9-2.5,11-3.4,0-.1,0-.2-.2-.3h.1Z"/>
    <path d="M165.1,337.8c-2.4.2-12.4,4.1-14.9,4.8-.8.2-.6.2.2,0,1.8-.4,5-1.3,8.6-2.3,2.3-1,6.9-1.2,6.1-2.3h0ZM151.8,342.2h0s.1,0,0,0h-.1.1ZM151.6,342.3h0s.1,0,0,0h-.1.1Z"/>
    <path d="M167.4,345h0s0,0,.1,0h-.1Z"/>
    <path d="M156.8,325.6c-.1,0,0,0,.1,0h-.1Z"/>
    <path d="M156.5,325.7h0s0,0,.1,0h-.1Z"/>
    <path d="M149.5,342.8h0s0,0,.1,0h-.1Z"/>
    <path d="M271.1,436.1c-1.6,0-10.2,3.4-11.5,3.6,0,0,3.1-.7,7.7-2,3.2-1,4.2-1,3.8-1.6h0Z"/>
    <path d="M263.4,454.1c-1.6,0-10.2,3.4-11.5,3.6,0,0,3.1-.7,7.7-2,3.2-1,4.2-1,3.8-1.6h0Z"/>
    <path d="M314.5,472.9c-1.6,0-10.2,3.4-11.5,3.6,0,0,3.1-.7,7.7-2,3.2-1,4.2-1,3.8-1.6h0Z"/>
    <path d="M232.1,325.1c-1.6,0-10.2,3.4-11.5,3.6,0,0,3.1-.7,7.7-2,3.2-1,4.2-1,3.8-1.6h0Z"/>
    <path d="M271.4,465.9c-1.4-.5-10.8,3.5-13.7,4.2,0,0-1.9.7-1.9.6,1.1-.6,14.8-3.1,15.6-4.8h0ZM258.3,470h0s.1,0,0,0h-.1.1ZM258,470.1h0s.1,0,0,0h-.1.1Z"/>
    <path d="M301.6,484.8c-1.4-.5-10.8,3.5-13.7,4.2,0,0-1.9.7-1.9.6,1.1-.6,14.8-3.1,15.6-4.8h0ZM288.5,489h0s.1,0,0,0h-.1.1ZM288.2,489.1h0s.1,0,0,0h-.1.1Z"/>
    <path d="M294.2,463.9c-1.4-.5-10.8,3.5-13.7,4.2,0,0-1.9.7-1.9.6,1.1-.6,14.8-3.1,15.6-4.8h0ZM281.2,468.1h0s.1,0,0,0h-.1.1ZM280.7,468.2h0s.1,0,0,0h-.1.1Z"/>
    <path d="M315.7,490.5c-2.3,0-8.2,2.7-12.9,3.9.2-.3,12.6-2.7,13-3.6,0,0,0-.1-.1-.2h0Z"/>
    <path d="M276.7,503.2c-1.2-.2-10.5,3.5-11.9,3.9.4-.1,13.4-2.8,11.9-3.9h0ZM266.5,506.7h0c.1,0,0,0-.1,0h.1ZM266.2,506.7h0s.1,0,0,0h-.1.1ZM265.8,506.8h0s.1,0,0,0h-.1.1Z"/>
    <path d="M263.1,489.3h0s0,0,.1,0h-.1Z"/>
    <path d="M210.9,475.2c-.8-.1-8.1,2.9-10.9,3.7.8-.2,8.9-2.5,11-3.4,0-.1,0-.2-.2-.3h.1Z"/>
    <path d="M244.8,484.6c-2.4.2-12.4,4.1-14.9,4.8-.8.2-.6.2.2,0,1.8-.4,5-1.3,8.6-2.3,2.3-1,6.9-1.2,6.1-2.3h0ZM231.5,488.9h0s.1,0,0,0h-.1.1ZM231.2,488.9h0s.1,0,0,0h-.1.1Z"/>
    <path d="M247,491.8h0s0,0,.1,0h-.1Z"/>
    <path d="M236.4,472.3c-.1,0,0,0,.1,0h-.1Z"/>
    <path d="M236.2,472.5h0s0,0,.1,0h-.1Z"/>
    <path d="M229.1,489.6h0s0,0,.1,0h-.1Z"/>
  </g>
  <path d="M144.6,245.7c-1.6,0-10.2,3.4-11.5,3.6,0,0,3.1-.7,7.7-2,3.2-1,4.2-1,3.8-1.6Z"/>
  <path d="M133.2,239.1c-1.6,0-10.2,3.4-11.5,3.6,0,0,3.1-.7,7.7-2,3.2-1,4.2-1,3.8-1.6Z"/>
  <path d="M148.9,225.7c-1.6,0-10.2,3.4-11.5,3.6,0,0,3.1-.7,7.7-2,3.2-1,4.2-1,3.8-1.6Z"/>
  <path d="M140.8,217.7c-1.6,0-10.2,3.4-11.5,3.6,0,0,3.1-.7,7.7-2,3.2-1,4.2-1,3.8-1.6Z"/>
  <path d="M165.2,221.7c-1.6,0-10.2,3.4-11.5,3.6,0,0,3.1-.7,7.7-2,3.2-1,4.2-1,3.8-1.6Z"/>
  <path d="M103.1,302.8c-1.6,0-10.2,3.4-11.5,3.6,0,0,3.1-.7,7.7-2,3.2-1,4.2-1,3.8-1.6h0Z"/>
  <path d="M166.1,251.4c-1.6,0-10.2,3.4-11.5,3.6,0,0,3.1-.7,7.7-2,3.2-1,4.2-1,3.8-1.6Z"/>
  <path d="M168.3,295.4c-1.3-.4-13.6,4.4-15.8,4.9,0,0,2-.5,2.1-.6,0,0,.1,0,0,0-1.3.6,9.4-2.5,12.1-3.3,1.2-.4,2.1-.4,1.5-1.1h.1ZM155.2,299.6h0s.1,0,0,0h-.1.1ZM154.9,299.7h0c.1,0,0,0-.1,0h.1Z"/>
  <path d="M160.1,265.2c-1.4-.5-10.8,3.5-13.7,4.2,0,0-1.9.7-1.9.6,1.1-.6,14.8-3.1,15.6-4.8h0ZM147.1,269.3h0s.1,0,0,0h-.1.1ZM146.7,269.4h0s.1,0,0,0h-.1.1Z"/>
  <path d="M173.2,246c-1.4-.5-10.8,3.5-13.7,4.2,0,0-1.9.7-1.9.6,1.1-.6,14.8-3.1,15.6-4.8h0ZM160.1,250.1h0s.1,0,0,0h-.1.1ZM159.8,250.2h0s.1,0,0,0h-.1.1Z"/>
  <path d="M198.4,280.4c-1.4-.5-10.8,3.5-13.7,4.2,0,0-1.9.7-1.9.6,1.1-.6,14.8-3.1,15.6-4.8h0ZM185.2,284.5h0s.1,0,0,0h-.1.1ZM184.9,284.6h0s.1,0,0,0h-.1.1Z"/>
  <path d="M183,263.2c-1.4-.5-10.8,3.5-13.7,4.2,0,0-1.9.7-1.9.6,1.1-.6,14.8-3.1,15.6-4.8h0ZM169.9,267.4h0s.1,0,0,0h-.1.1ZM169.4,267.4h0s.1,0,0,0h-.1.1Z"/>
  <path d="M159.4,280.2c-2.4-.1-9.3,3-13.2,4,0,0,1.5-.3,1.5-.4h0c-.5,0,11.1-2.2,11.7-3.5h-.1c0-.1.1-.1.1-.1Z"/>
  <path d="M145.9,323.8c-2.3,0-8.2,2.7-12.9,3.9.2-.3,12.6-2.7,13-3.6,0,0,0-.1-.1-.2h0Z"/>
  <path d="M134.8,366.9c-2.3,0-8.2,2.7-12.9,3.9.2-.3,12.6-2.7,13-3.6,0,0,0-.1-.1-.2h0Z"/>
  <path d="M107.3,326.7c-2.3,0-8.2,2.7-12.9,3.9.2-.3,12.6-2.7,13-3.6,0,0,0-.1-.1-.2h0Z"/>
  <path d="M155.8,416.5c-2.3,0-8.2,2.7-12.9,3.9.2-.3,12.6-2.7,13-3.6,0,0,0-.1-.1-.2h0Z"/>
  <path d="M204.4,289.8c-2.3,0-8.2,2.7-12.9,3.9.2-.3,12.6-2.7,13-3.6,0,0,0-.1-.1-.2h0Z"/>
  <path d="M151.8,288.6h0s0,0,.1,0h-.1Z"/>
  <path d="M131.6,261.5h0s0,0,.1,0h-.1Z"/>
  <path d="M122.9,258.2h0s0,0,.1,0h-.1Z"/>
  <path d="M135.8,291.1h0s0,0,.1,0h-.1Z"/>
  <path d="M125.1,271.6c-.1,0,0,0,.1,0h-.1Z"/>
  <path d="M124.8,271.7h0s0,0,.1,0h-.1Z"/>
  <path d="M119.5,261.6c-2.6.5-4.4,1.5-9.4,2.9-5.2,1.6,4.6-1,5.7-1.4,1-.4,4.5-.8,3.7-1.6h0Z"/>
  <path d="M111.8,255h0s0,0,.1,0h-.1Z"/>
  <path d="M106.3,248.8c-1.7-.3-10.6,3.6-13.9,4.2-.3,0-1,.1-1.4.3.5.1,12.5-3.1,15.3-4.3,0-.1,0-.2-.1-.4v.2ZM93,253.1h0s.1,0,0,0h-.1.1ZM92.8,253.1h0s.1,0,0,0h-.1.1Z"/>
  <path d="M108.3,265.1h0s0,0,.1,0h-.1Z"/>
  <path d="M117.8,288.8h0s0,0,.1,0h-.1Z"/>
  <path d="M130.8,295.8c-1.3-.4-13.6,4.4-15.8,4.9,0,0,2-.5,2.1-.6,0,0,.1,0,0,0-1.3.6,9.4-2.5,12.1-3.3,1.2-.4,2.1-.4,1.5-1.1h.1ZM117.7,300h0s.1,0,0,0h-.1.1ZM117.4,300.1h0c.1,0,0,0-.1,0h.1Z"/>
  <path d="M190.2,252.3c-1.3-.4-13.6,4.4-15.8,4.9,0,0,2-.5,2.1-.6,0,0,.1,0,0,0-1.3.6,9.4-2.5,12.1-3.3,1.2-.4,2.1-.4,1.5-1.1h.1ZM177.1,256.5h0s.1,0,0,0h-.1.1ZM176.8,256.6h0c.1,0,0,0-.1,0h.1Z"/>
  <path d="M130.8,176.4c-1.4-.5-10.8,3.5-13.7,4.2,0,0-1.9.7-1.9.6,1.1-.6,14.8-3.1,15.6-4.8h0ZM117.6,180.6h0s.1,0,0,0h-.1.1ZM117.3,180.7h0s.1,0,0,0h-.1.1Z"/>
  <path d="M152.1,203c-2.3,0-8.2,2.7-12.9,3.9.2-.3,12.6-2.7,13-3.6,0,0,0-.1-.1-.2h0Z"/>
  <path d="M113.3,215.7c-1.2-.2-10.5,3.5-11.9,3.9.4-.1,13.4-2.8,11.9-3.9ZM102.9,219.1h0c.1,0,0,0-.1,0h.1ZM102.6,219.1h0s.1,0,0,0h-.1.1ZM102.3,219.3h0s.1,0,0,0h-.1.1Z"/>
  <path d="M130,211.3c-.9,0-7,3.1-8,3.5,1.3-.5,6.4-2.6,8-3.3v-.2ZM123.1,214.3h0ZM122.9,214.4h0ZM122.7,214.5h0Z"/>
  <path d="M166.7,239.6c-.9,0-7,3.1-8,3.5,1.3-.5,6.4-2.6,8-3.3,0,0,0-.2,0-.2ZM159.7,242.6h0ZM159.6,242.7h0ZM159.3,242.8h0Z"/>
  <path d="M180,277.6c-.9,0-7,3.1-8,3.5,1.3-.5,6.4-2.6,8-3.3,0,0,0-.2,0-.2ZM173,280.6h0ZM172.9,280.7h0ZM172.7,280.7h0Z"/>
  <path d="M164.9,211c-.9,0-7,3.1-8,3.5,1.3-.5,6.4-2.6,8-3.3,0,0,0-.2,0-.2ZM158,214h0ZM157.8,214.1h0ZM157.6,214.2h0Z"/>
  <path d="M175.9,230.9c-.9,0-7,3.1-8,3.5,1.3-.5,6.4-2.6,8-3.3,0,0,0-.2,0-.2ZM169,233.8h0ZM168.8,233.9h0ZM168.6,233.9h0Z"/>
  <path d="M99.6,201.8h0s0,0,.1,0h-.1Z"/>
  <path d="M160.7,366.4c-1.6,0-10.2,3.4-11.5,3.6,0,0,3.1-.7,7.7-2,3.2-1,4.2-1,3.8-1.6h0Z"/>
  <path d="M187.3,295.4c-1.6,0-10.2,3.4-11.5,3.6,0,0,3.1-.7,7.7-2,3.2-1,4.2-1,3.8-1.6Z"/>
  <path d="M179.6,313.3c-1.6,0-10.2,3.4-11.5,3.6,0,0,3.1-.7,7.7-2,3.2-1,4.2-1,3.8-1.6h0Z"/>
  <path d="M230.7,332.1c-1.6,0-10.2,3.4-11.5,3.6,0,0,3.1-.7,7.7-2,3.2-1,4.2-1,3.8-1.6h0Z"/>
  <path d="M148.2,184.3c-1.6,0-10.2,3.4-11.5,3.6,0,0,3.1-.7,7.7-2,3.2-1,4.2-1,3.8-1.6Z"/>
  <path d="M217.8,344.1c-1.4-.5-10.8,3.5-13.7,4.2,0,0-1.9.7-1.9.6,1.1-.6,14.8-3.1,15.6-4.8h0ZM204.7,348.3h0s.1,0,0,0h-.1.1ZM204.4,348.4h0s.1,0,0,0h-.1.1Z"/>
  <path d="M210.4,323.2c-1.4-.5-10.8,3.5-13.7,4.2,0,0-1.9.7-1.9.6,1.1-.6,14.8-3.1,15.6-4.8h0ZM197.3,327.3h0s.1,0,0,0h-.1.1ZM197,327.4h0s.1,0,0,0h-.1.1Z"/>
  <path d="M231.8,349.8c-2.3,0-8.2,2.7-12.9,3.9.2-.3,12.6-2.7,13-3.6,0,0,0-.1-.1-.2h0Z"/>
  <path d="M179.3,348.6h0s0,0,.1,0h-.1Z"/>
  <path d="M163.2,351h0s0,0,.1,0h-.1Z"/>
  <path d="M152.7,331.6c-.1,0,0,0,.1,0h-.1Z"/>
  <path d="M152.3,331.6h0s0,0,.1,0h-.1Z"/>
  <path d="M145.3,348.8h0s0,0,.1,0h-.1Z"/>
  <g id="Light-Rain-21" serif:id="Light Rain 2">
    <path d="M167.6,431.9c-1.6,0-10.2,3.4-11.5,3.6,0,0,3.1-.7,7.7-2,3.2-1,4.2-1,3.8-1.6h0Z"/>
    <path d="M217.1,379.9c-1.6,0-10.2,3.4-11.5,3.6,0,0,3.1-.7,7.7-2,3.2-1,4.2-1,3.8-1.6h0Z"/>
    <path d="M232.7,366.4c-1.6,0-10.2,3.4-11.5,3.6,0,0,3.1-.7,7.7-2,3.2-1,4.2-1,3.8-1.6h0Z"/>
    <path d="M224.7,358.4c-1.6,0-10.2,3.4-11.5,3.6,0,0,3.1-.7,7.7-2,3.2-1,4.2-1,3.8-1.6h0Z"/>
    <path d="M249.1,362.5c-1.6,0-10.2,3.4-11.5,3.6,0,0,3.1-.7,7.7-2,3.2-1,4.2-1,3.8-1.6h0Z"/>
    <path d="M201.8,448.8c-1.6,0-10.2,3.4-11.5,3.6,0,0,3.1-.7,7.7-2,3.2-1,4.2-1,3.8-1.6h0Z"/>
    <path d="M249.8,392.1c-1.6,0-10.2,3.4-11.5,3.6,0,0,3.1-.7,7.7-2,3.2-1,4.2-1,3.8-1.6h0Z"/>
    <path d="M252.1,436.1c-1.3-.4-13.6,4.4-15.8,4.9,0,0,2-.5,2.1-.6,0,0,.1,0,0,0-1.3.6,9.4-2.5,12.1-3.3,1.2-.4,2.1-.4,1.5-1.1h.1ZM239,440.4h0s.1,0,0,0h-.1.1ZM238.7,440.5h0c.1,0,0,0-.1,0h.1Z"/>
    <path d="M244,405.9c-1.4-.5-10.8,3.5-13.7,4.2,0,0-1.9.7-1.9.6,1.1-.6,14.8-3.1,15.6-4.8h0ZM230.9,410.1h0s.1,0,0,0h-.1.1ZM230.6,410.2h0s.1,0,0,0h-.1.1Z"/>
    <path d="M257.1,386.7c-1.4-.5-10.8,3.5-13.7,4.2,0,0-1.9.7-1.9.6,1.1-.6,14.8-3.1,15.6-4.8h0ZM244,390.8h0s.1,0,0,0h-.1.1ZM243.7,390.9h0s.1,0,0,0h-.1.1Z"/>
    <path d="M282.2,421.1c-1.4-.5-10.8,3.5-13.7,4.2,0,0-1.9.7-1.9.6,1.1-.6,14.8-3.1,15.6-4.8h0ZM269,425.3h0s.1,0,0,0h-.1.1ZM268.7,425.4h0s.1,0,0,0h-.1.1Z"/>
    <path d="M266.8,403.9c-1.4-.5-10.8,3.5-13.7,4.2,0,0-1.9.7-1.9.6,1.1-.6,14.8-3.1,15.6-4.8h0ZM253.6,408.2h0s.1,0,0,0h-.1.1ZM253.3,408.3h0s.1,0,0,0h-.1.1Z"/>
    <path d="M243.2,421c-2.4-.1-9.3,3-13.2,4,0,0,1.5-.3,1.5-.4h0c-.5,0,11.1-2.2,11.7-3.5h-.1c0-.1.1-.1.1-.1Z"/>
    <path d="M232.3,463.9c-2.3,0-8.2,2.7-12.9,3.9.2-.3,12.6-2.7,13-3.6,0,0,0-.1-.1-.2h0Z"/>
    <path d="M288.2,430.5c-2.3,0-8.2,2.7-12.9,3.9.2-.3,12.6-2.7,13-3.6,0,0,0-.1-.1-.2h0Z"/>
    <path d="M235.6,429.4h0s0,0,.1,0h-.1Z"/>
    <path d="M230.8,428c-2,.5-8.9,3.2-11.1,3.9,2.8-.7,10.6-2.8,11.4-3.6,0,0-.2-.2-.3-.3Z"/>
    <path d="M215.5,402.3h0s0,0,.1,0h-.1Z"/>
    <path d="M206.7,399h0s0,0,.1,0h-.1Z"/>
    <path d="M219.6,431.8h0s0,0,.1,0h-.1Z"/>
    <path d="M208.9,412.4c-.1,0,0,0,.1,0h-.1Z"/>
    <path d="M208.6,412.5h0s0,0,.1,0h-.1Z"/>
    <path d="M216,394.6c-2.6.5-4.4,1.5-9.4,2.9-5.2,1.6,4.6-1,5.7-1.4,1-.4,4.5-.8,3.7-1.6h0Z"/>
    <path d="M195.6,395.8h0s0,0,.1,0h-.1Z"/>
    <path d="M190.1,389.6c-1.7-.3-10.6,3.6-13.9,4.2-.3,0-1,.1-1.4.3.5.1,12.5-3.1,15.3-4.3,0-.1,0-.2-.1-.4v.2ZM176.8,393.9h0s.1,0,0,0h-.1.1ZM176.6,394h0s.1,0,0,0h-.1.1Z"/>
    <path d="M192.1,405.8h0s0,0,.1,0h-.1Z"/>
    <path d="M201.6,429.6h0s0,0,.1,0h-.1Z"/>
    <path d="M205.8,420c-1.3-.4-13.6,4.4-15.8,4.9,0,0,2-.5,2.1-.6,0,0,.1,0,0,0-1.3.6,9.4-2.5,12.1-3.3,1.2-.4,2.1-.4,1.5-1.1h.1ZM192.7,424.2h0s.1,0,0,0h-.1.1ZM192.4,424.3h0c.1,0,0,0-.1,0h.1Z"/>
    <path d="M274.1,393.1c-1.3-.4-13.6,4.4-15.8,4.9,0,0,2-.5,2.1-.6,0,0,.1,0,0,0-1.3.6,9.4-2.5,12.1-3.3,1.2-.4,2.1-.4,1.5-1.1h.1ZM261,397.3h0s.1,0,0,0h-.1.1ZM260.7,397.4h0c.1,0,0,0-.1,0h.1Z"/>
    <path d="M191.8,319.1c-1.4-.5-10.8,3.5-13.7,4.2,0,0-1.9.7-1.9.6,1.1-.6,14.8-3.1,15.6-4.8h0ZM178.6,323.3h0s.1,0,0,0h-.1.1ZM178.3,323.4h0s.1,0,0,0h-.1.1Z"/>
    <path d="M214.6,317.1c-1.4-.5-10.8,3.5-13.7,4.2,0,0-1.9.7-1.9.6,1.1-.6,14.8-3.1,15.6-4.8h0ZM201.4,321.4h0s.1,0,0,0h-.1.1ZM201.1,321.5h0s.1,0,0,0h-.1.1Z"/>
    <path d="M236,343.8c-2.3,0-8.2,2.7-12.9,3.9.2-.3,12.6-2.7,13-3.6,0,0,0-.1-.1-.2h0Z"/>
    <path d="M197.1,356.4c-1.2-.2-10.5,3.5-11.9,3.9.4-.1,13.4-2.8,11.9-3.9h0ZM186.8,359.9h0c.1,0,0,0-.1,0h.1ZM186.4,359.9h0s.1,0,0,0h-.1.1ZM186.1,360h0s.1,0,0,0h-.1.1Z"/>
    <path d="M152.9,386.6c-.9,0-7,3.1-8,3.5,1.3-.5,6.4-2.6,8-3.3,0,0,0-.2,0-.2ZM145.9,389.7h0ZM145.8,389.7h0ZM145.6,389.8h0Z"/>
    <path d="M250.4,380.4c-.9,0-7,3.1-8,3.5,1.3-.5,6.4-2.6,8-3.3,0,0,0-.2,0-.2ZM243.6,383.3h0ZM243.4,383.4h0ZM243.1,383.5h0Z"/>
    <path d="M263.8,418.4c-.9,0-7,3.1-8,3.5,1.3-.5,6.4-2.6,8-3.3,0,0,0-.2,0-.2ZM256.9,421.3h0ZM256.8,421.5h0ZM256.6,421.6h0Z"/>
    <path d="M248.7,351.8c-.9,0-7,3.1-8,3.5,1.3-.5,6.4-2.6,8-3.3,0,0,0-.2,0-.2ZM241.9,354.7h0ZM241.7,354.8h0ZM241.5,354.9h0Z"/>
    <path d="M259.7,371.6c-.9,0-7,3.1-8,3.5,1.3-.5,6.4-2.6,8-3.3,0,0,0-.2,0-.2ZM252.9,374.6h0ZM252.6,374.7h0ZM252.4,374.8h0Z"/>
    <path d="M183.5,342.6h0s0,0,.1,0h-.1Z"/>
    <path d="M119.6,345.5c-.8-.1-8.1,2.9-10.9,3.7.8-.2,8.9-2.5,11-3.4,0-.1,0-.2-.2-.3h.1Z"/>
    <path d="M165.1,337.8c-2.4.2-12.4,4.1-14.9,4.8-.8.2-.6.2.2,0,1.8-.4,5-1.3,8.6-2.3,2.3-1,6.9-1.2,6.1-2.3h0ZM151.8,342.2h0s.1,0,0,0h-.1.1ZM151.6,342.3h0s.1,0,0,0h-.1.1Z"/>
    <path d="M167.4,345h0s0,0,.1,0h-.1Z"/>
    <path d="M156.8,325.6c-.1,0,0,0,.1,0h-.1Z"/>
    <path d="M156.5,325.7h0s0,0,.1,0h-.1Z"/>
    <path d="M149.5,342.8h0s0,0,.1,0h-.1Z"/>
    <path d="M271.1,436.1c-1.6,0-10.2,3.4-11.5,3.6,0,0,3.1-.7,7.7-2,3.2-1,4.2-1,3.8-1.6h0Z"/>
    <path d="M263.4,454.1c-1.6,0-10.2,3.4-11.5,3.6,0,0,3.1-.7,7.7-2,3.2-1,4.2-1,3.8-1.6h0Z"/>
    <path d="M314.5,472.9c-1.6,0-10.2,3.4-11.5,3.6,0,0,3.1-.7,7.7-2,3.2-1,4.2-1,3.8-1.6h0Z"/>
    <path d="M232.1,325.1c-1.6,0-10.2,3.4-11.5,3.6,0,0,3.1-.7,7.7-2,3.2-1,4.2-1,3.8-1.6h0Z"/>
    <path d="M271.4,465.9c-1.4-.5-10.8,3.5-13.7,4.2,0,0-1.9.7-1.9.6,1.1-.6,14.8-3.1,15.6-4.8h0ZM258.3,470h0s.1,0,0,0h-.1.1ZM258,470.1h0s.1,0,0,0h-.1.1Z"/>
    <path d="M301.6,484.8c-1.4-.5-10.8,3.5-13.7,4.2,0,0-1.9.7-1.9.6,1.1-.6,14.8-3.1,15.6-4.8h0ZM288.5,489h0s.1,0,0,0h-.1.1ZM288.2,489.1h0s.1,0,0,0h-.1.1Z"/>
    <path d="M294.2,463.9c-1.4-.5-10.8,3.5-13.7,4.2,0,0-1.9.7-1.9.6,1.1-.6,14.8-3.1,15.6-4.8h0ZM281.2,468.1h0s.1,0,0,0h-.1.1ZM280.7,468.2h0s.1,0,0,0h-.1.1Z"/>
    <path d="M315.7,490.5c-2.3,0-8.2,2.7-12.9,3.9.2-.3,12.6-2.7,13-3.6,0,0,0-.1-.1-.2h0Z"/>
    <path d="M276.7,503.2c-1.2-.2-10.5,3.5-11.9,3.9.4-.1,13.4-2.8,11.9-3.9h0ZM266.5,506.7h0c.1,0,0,0-.1,0h.1ZM266.2,506.7h0s.1,0,0,0h-.1.1ZM265.8,506.8h0s.1,0,0,0h-.1.1Z"/>
    <path d="M263.1,489.3h0s0,0,.1,0h-.1Z"/>
    <path d="M210.9,475.2c-.8-.1-8.1,2.9-10.9,3.7.8-.2,8.9-2.5,11-3.4,0-.1,0-.2-.2-.3h.1Z"/>
    <path d="M244.8,484.6c-2.4.2-12.4,4.1-14.9,4.8-.8.2-.6.2.2,0,1.8-.4,5-1.3,8.6-2.3,2.3-1,6.9-1.2,6.1-2.3h0ZM231.5,488.9h0s.1,0,0,0h-.1.1ZM231.2,488.9h0s.1,0,0,0h-.1.1Z"/>
    <path d="M247,491.8h0s0,0,.1,0h-.1Z"/>
    <path d="M236.4,472.3c-.1,0,0,0,.1,0h-.1Z"/>
    <path d="M236.2,472.5h0s0,0,.1,0h-.1Z"/>
    <path d="M229.1,489.6h0s0,0,.1,0h-.1Z"/>
  </g>
  <path d="M144.6,245.7c-1.6,0-10.2,3.4-11.5,3.6,0,0,3.1-.7,7.7-2,3.2-1,4.2-1,3.8-1.6Z"/>
  <path d="M133.2,239.1c-1.6,0-10.2,3.4-11.5,3.6,0,0,3.1-.7,7.7-2,3.2-1,4.2-1,3.8-1.6Z"/>
  <path d="M148.9,225.7c-1.6,0-10.2,3.4-11.5,3.6,0,0,3.1-.7,7.7-2,3.2-1,4.2-1,3.8-1.6Z"/>
  <path d="M140.8,217.7c-1.6,0-10.2,3.4-11.5,3.6,0,0,3.1-.7,7.7-2,3.2-1,4.2-1,3.8-1.6Z"/>
  <path d="M165.2,221.7c-1.6,0-10.2,3.4-11.5,3.6,0,0,3.1-.7,7.7-2,3.2-1,4.2-1,3.8-1.6Z"/>
  <path d="M103.1,302.8c-1.6,0-10.2,3.4-11.5,3.6,0,0,3.1-.7,7.7-2,3.2-1,4.2-1,3.8-1.6h0Z"/>
  <path d="M166.1,251.4c-1.6,0-10.2,3.4-11.5,3.6,0,0,3.1-.7,7.7-2,3.2-1,4.2-1,3.8-1.6Z"/>
  <path d="M168.3,295.4c-1.3-.4-13.6,4.4-15.8,4.9,0,0,2-.5,2.1-.6,0,0,.1,0,0,0-1.3.6,9.4-2.5,12.1-3.3,1.2-.4,2.1-.4,1.5-1.1h.1ZM155.2,299.6h0s.1,0,0,0h-.1.1ZM154.9,299.7h0c.1,0,0,0-.1,0h.1Z"/>
  <path d="M160.1,265.2c-1.4-.5-10.8,3.5-13.7,4.2,0,0-1.9.7-1.9.6,1.1-.6,14.8-3.1,15.6-4.8h0ZM147.1,269.3h0s.1,0,0,0h-.1.1ZM146.7,269.4h0s.1,0,0,0h-.1.1Z"/>
  <path d="M173.2,246c-1.4-.5-10.8,3.5-13.7,4.2,0,0-1.9.7-1.9.6,1.1-.6,14.8-3.1,15.6-4.8h0ZM160.1,250.1h0s.1,0,0,0h-.1.1ZM159.8,250.2h0s.1,0,0,0h-.1.1Z"/>
  <path d="M198.4,280.4c-1.4-.5-10.8,3.5-13.7,4.2,0,0-1.9.7-1.9.6,1.1-.6,14.8-3.1,15.6-4.8h0ZM185.2,284.5h0s.1,0,0,0h-.1.1ZM184.9,284.6h0s.1,0,0,0h-.1.1Z"/>
  <path d="M183,263.2c-1.4-.5-10.8,3.5-13.7,4.2,0,0-1.9.7-1.9.6,1.1-.6,14.8-3.1,15.6-4.8h0ZM169.9,267.4h0s.1,0,0,0h-.1.1ZM169.4,267.4h0s.1,0,0,0h-.1.1Z"/>
  <path d="M159.4,280.2c-2.4-.1-9.3,3-13.2,4,0,0,1.5-.3,1.5-.4h0c-.5,0,11.1-2.2,11.7-3.5h-.1c0-.1.1-.1.1-.1Z"/>
  <path d="M145.9,323.8c-2.3,0-8.2,2.7-12.9,3.9.2-.3,12.6-2.7,13-3.6,0,0,0-.1-.1-.2h0Z"/>
  <path d="M134.8,366.9c-2.3,0-8.2,2.7-12.9,3.9.2-.3,12.6-2.7,13-3.6,0,0,0-.1-.1-.2h0Z"/>
  <path d="M107.3,326.7c-2.3,0-8.2,2.7-12.9,3.9.2-.3,12.6-2.7,13-3.6,0,0,0-.1-.1-.2h0Z"/>
  <path d="M155.8,416.5c-2.3,0-8.2,2.7-12.9,3.9.2-.3,12.6-2.7,13-3.6,0,0,0-.1-.1-.2h0Z"/>
  <path d="M204.4,289.8c-2.3,0-8.2,2.7-12.9,3.9.2-.3,12.6-2.7,13-3.6,0,0,0-.1-.1-.2h0Z"/>
  <path d="M151.8,288.6h0s0,0,.1,0h-.1Z"/>
  <path d="M131.6,261.5h0s0,0,.1,0h-.1Z"/>
  <path d="M122.9,258.2h0s0,0,.1,0h-.1Z"/>
  <path d="M135.8,291.1h0s0,0,.1,0h-.1Z"/>
  <path d="M125.1,271.6c-.1,0,0,0,.1,0h-.1Z"/>
  <path d="M124.8,271.7h0s0,0,.1,0h-.1Z"/>
  <path d="M119.5,261.6c-2.6.5-4.4,1.5-9.4,2.9-5.2,1.6,4.6-1,5.7-1.4,1-.4,4.5-.8,3.7-1.6h0Z"/>
  <path d="M111.8,255h0s0,0,.1,0h-.1Z"/>
  <path d="M106.3,248.8c-1.7-.3-10.6,3.6-13.9,4.2-.3,0-1,.1-1.4.3.5.1,12.5-3.1,15.3-4.3,0-.1,0-.2-.1-.4v.2ZM93,253.1h0s.1,0,0,0h-.1.1ZM92.8,253.1h0s.1,0,0,0h-.1.1Z"/>
  <path d="M108.3,265.1h0s0,0,.1,0h-.1Z"/>
  <path d="M117.8,288.8h0s0,0,.1,0h-.1Z"/>
  <path d="M130.8,295.8c-1.3-.4-13.6,4.4-15.8,4.9,0,0,2-.5,2.1-.6,0,0,.1,0,0,0-1.3.6,9.4-2.5,12.1-3.3,1.2-.4,2.1-.4,1.5-1.1h.1ZM117.7,300h0s.1,0,0,0h-.1.1ZM117.4,300.1h0c.1,0,0,0-.1,0h.1Z"/>
  <path d="M190.2,252.3c-1.3-.4-13.6,4.4-15.8,4.9,0,0,2-.5,2.1-.6,0,0,.1,0,0,0-1.3.6,9.4-2.5,12.1-3.3,1.2-.4,2.1-.4,1.5-1.1h.1ZM177.1,256.5h0s.1,0,0,0h-.1.1ZM176.8,256.6h0c.1,0,0,0-.1,0h.1Z"/>
  <path d="M130.8,176.4c-1.4-.5-10.8,3.5-13.7,4.2,0,0-1.9.7-1.9.6,1.1-.6,14.8-3.1,15.6-4.8h0ZM117.6,180.6h0s.1,0,0,0h-.1.1ZM117.3,180.7h0s.1,0,0,0h-.1.1Z"/>
  <path d="M152.1,203c-2.3,0-8.2,2.7-12.9,3.9.2-.3,12.6-2.7,13-3.6,0,0,0-.1-.1-.2h0Z"/>
  <path d="M113.3,215.7c-1.2-.2-10.5,3.5-11.9,3.9.4-.1,13.4-2.8,11.9-3.9ZM102.9,219.1h0c.1,0,0,0-.1,0h.1ZM102.6,219.1h0s.1,0,0,0h-.1.1ZM102.3,219.3h0s.1,0,0,0h-.1.1Z"/>
  <path d="M130,211.3c-.9,0-7,3.1-8,3.5,1.3-.5,6.4-2.6,8-3.3v-.2ZM123.1,214.3h0ZM122.9,214.4h0ZM122.7,214.5h0Z"/>
  <path d="M166.7,239.6c-.9,0-7,3.1-8,3.5,1.3-.5,6.4-2.6,8-3.3,0,0,0-.2,0-.2ZM159.7,242.6h0ZM159.6,242.7h0ZM159.3,242.8h0Z"/>
  <path d="M180,277.6c-.9,0-7,3.1-8,3.5,1.3-.5,6.4-2.6,8-3.3,0,0,0-.2,0-.2ZM173,280.6h0ZM172.9,280.7h0ZM172.7,280.7h0Z"/>
  <path d="M164.9,211c-.9,0-7,3.1-8,3.5,1.3-.5,6.4-2.6,8-3.3,0,0,0-.2,0-.2ZM158,214h0ZM157.8,214.1h0ZM157.6,214.2h0Z"/>
  <path d="M175.9,230.9c-.9,0-7,3.1-8,3.5,1.3-.5,6.4-2.6,8-3.3,0,0,0-.2,0-.2ZM169,233.8h0ZM168.8,233.9h0ZM168.6,233.9h0Z"/>
  <path d="M99.6,201.8h0s0,0,.1,0h-.1Z"/>
  <path d="M160.7,366.4c-1.6,0-10.2,3.4-11.5,3.6,0,0,3.1-.7,7.7-2,3.2-1,4.2-1,3.8-1.6h0Z"/>
  <path d="M187.3,295.4c-1.6,0-10.2,3.4-11.5,3.6,0,0,3.1-.7,7.7-2,3.2-1,4.2-1,3.8-1.6Z"/>
  <path d="M179.6,313.3c-1.6,0-10.2,3.4-11.5,3.6,0,0,3.1-.7,7.7-2,3.2-1,4.2-1,3.8-1.6h0Z"/>
  <path d="M230.7,332.1c-1.6,0-10.2,3.4-11.5,3.6,0,0,3.1-.7,7.7-2,3.2-1,4.2-1,3.8-1.6h0Z"/>
  <path d="M148.2,184.3c-1.6,0-10.2,3.4-11.5,3.6,0,0,3.1-.7,7.7-2,3.2-1,4.2-1,3.8-1.6Z"/>
  <path d="M217.8,344.1c-1.4-.5-10.8,3.5-13.7,4.2,0,0-1.9.7-1.9.6,1.1-.6,14.8-3.1,15.6-4.8h0ZM204.7,348.3h0s.1,0,0,0h-.1.1ZM204.4,348.4h0s.1,0,0,0h-.1.1Z"/>
  <path d="M210.4,323.2c-1.4-.5-10.8,3.5-13.7,4.2,0,0-1.9.7-1.9.6,1.1-.6,14.8-3.1,15.6-4.8h0ZM197.3,327.3h0s.1,0,0,0h-.1.1ZM197,327.4h0s.1,0,0,0h-.1.1Z"/>
  <path d="M231.8,349.8c-2.3,0-8.2,2.7-12.9,3.9.2-.3,12.6-2.7,13-3.6,0,0,0-.1-.1-.2h0Z"/>
  <path d="M179.3,348.6h0s0,0,.1,0h-.1Z"/>
  <path d="M163.2,351h0s0,0,.1,0h-.1Z"/>
  <path d="M152.7,331.6c-.1,0,0,0,.1,0h-.1Z"/>
  <path d="M152.3,331.6h0s0,0,.1,0h-.1Z"/>
  <path d="M145.3,348.8h0s0,0,.1,0h-.1Z"/>
  <g id="path341" serif:id="path34">
    <path class="st6" d="M409.3,489.2c9.8-5.4,6.7-20.4,19-20.4,4.8,0,1.9.1,2.8.4,5.1,1.5,10.8.5,15.1-2.8,9.5-7.2,18.4-15.2,26.7-23.7,9-7.2-1.3-24.7,13.7-26.2,5.4-.3,10.3-3.2,13.3-7.7,84.6-123.4,12.1-311-136.3-343.4-8.7-1.9-13.8,4.6-21.2,5.7-9.2-.5-11.1-12.1-21.5-12.1-129,0-246.4,98.6-238.1,226.6,3.5,53.4,3,42.7,9,63.2,1.5,10.6,17,7.4,17.2,18.1,0,4.1-.4,5.5-1.2,6.9-2.4,4.8-2.4,10.5,0,15.4,56,109.5,191.3,153.6,301.6,100h0Z"/>
  </g>
  <path class="st9" d="M140.1,173c.6,2.1,1.9,3.9,3.8,5.1l138.1,83c3,1.8,6.7,1.5,9.4-.7,10.6-8.7,25.7-8.7,36.2,0,2.6,2.2,6.4,2.4,9.4.7l138.1-82.9c2.5-1.6,4.2-4.4,4.2-7.5"/>
  <path class="st9" d="M143.9,173l22.6-2.4v-6.1h13.5v-31.7l5.8-6.9,5.6,6.9v24.7l5.2-2v-7.2h7.6v3.5l1-12.8,14.6.2v11.9l2.5-.2v3.4l2.9.2v-15c1.8-1.2,8-1.1,10.1-1.2,0,0,2.3.8,2.3.8v17.5l3.3-.2v-24.4l3.3.2v-2.7l5.6-.4v2.4l4.3-1.1v2.2l5.6-.4v8.8h7.1v-31.9h19.7v39.3l2.3.6v-6.5l2.6-.4v-3.8l6.2-7.4v-9.9h1.3v10l5.4,7.6v3.4l3,.2v18.3h2.2v-37.8l7.4-6.5,7.9,6.8v38.8h2.3l-.6-39.6,1.4-1.2,1.2,1.3v4.6h1.1v-4.6l1.2-1.3,1,1.4v4.5h2.4v-2.7l1-.5,1.1.5v2.9h1.6v-2.4l1.1-1,.8.8v2.5h2.4v-4.8l1-1.2,1.1,1.3v4.8h1.4v-4.8l.8-1.2,1.1,1.3v18.4h3.3c0,.1,0-2.5,0-2.5h4.4v2.9h2.2v-2.6h2v2.5h6.1c0-.1,0,4.9,0,4.9h2.5c0,.1,0-2.6,0-2.6h5.2v2.4l1.5-.2v1.2l3.3-.2-.4,24.2h2.6v-39h10v3.8l5.3.2v3.7h2.9c0-.1,0,18.7,0,18.7h1.2v-9.6h1.6c0,.1,0-2.2,0-2.2h1.1v-1.6h2.5c0,.1,0-1.5,0-1.5h2.1v1.3h2.5v1.8h1.6v2.3h1.4v9h2.2v13.1h1.6v-24.3l5.9.2v-2.2h8.9v2.5h6.1c0-.1,0,16.6,0,16.6h6.2v-1.4h3.4v1.2h1.7v2h1.6v11.2h12l-6.8,10.5-289-2.6-22.6-11.2Z"/>
  <path class="st9" d="M485.6,186.7c-2-.5-4.2-.2-6.1,1l-137.9,83.3c-3,1.8-4.5,5.3-4.1,8.8,2,13.8-5.5,27.5-18.1,32.6-3.2,1.4-5.3,4.5-5.3,8.1l.4,166c0,3.1,1.6,6,4.2,7.5"/>
  <path class="st9" d="M303.5,493c1.5-1.6,2.3-3.7,2.3-6v-166c0-3.6-2-6.8-5.2-8-12.6-5.2-20.1-18.8-18.1-32.6.5-3.5-1.2-7-4.1-8.8l-138.1-83c-2.5-1.6-5.8-1.6-8.3,0"/>
  <path class="st9" d="M301.7,483.1l-13.5-18.8-5.1,3.1-7-12-26.1,16.3-8.7-1.7,2.7-8.4,20.4-12.7-4.3-3.6-5.9,3.7-3.9-6.9,2.9-1.8-11.1,5.7-7.3-13.1,9.9-6.1-1.5-2.1,2.7-1.8-1.3-2.6-12.4,7.7c-1.9-1.1-5.1-6.6-6.2-8.4,0,0-.5-2.5-.5-2.5l14.5-9-1.8-2.9-20.1,12.6-1.5-3.1-2.3,1.5-3.2-4.8,1.9-1.3-3.1-3.4,1.8-1.2-3.2-4.8,7.3-4.5-3.7-6.3-26.3,16.5-10.1-17.6,32.4-20.3-.7-2.3-5.4,3.4-1.8-2.2-3.1,2-9.3-1.7-8.2,5.1-.5-1.2,8.2-5.2,3.5-8.7,2.7-1.8-1.3-2.7,15-9.4-1.2-1.9-31,19.4-9.3-3.3,1.6-10.6,31.9-20-1.2-2-32.3,20.9-1.7-.6.4-1.7,3.8-2.4-.5-1-3.8,2.4-1.7-.4.6-1.5,3.8-2.4-1.3-2.1-2.2,1.4-1-.5v-1.3c-.1,0,2.2-1.5,2.2-1.5l-.8-1.4-2,1.3-1.3-.4.2-1.3,2.1-1.3-1.3-2.1-3.8,2.4-1.5-.3.4-1.6,4-2.4-.7-1.3-3.9,2.4h-1.5c0-.1.5-1.7.5-1.7l15.2-9.4-1.7-3-2.1,1.3-2.2-4,2.3-1.4-1.2-2-2.1,1.4-1.1-1.8,2.1-1.3-3.3-5.5,4-2.5-1.3-2.2-2.1,1.4-2.6-4.6,1.9-1.3-.8-1.2,1-.6-1.9-2.7,20.2-12.1-1.4-2.3-32.2,20.1-5.1-9.1,3.2-1.9-2.6-4.8,3.1-1.9-1.6-2.5,15.5-9.6-.6-1.1-7.8,4.9-.7-1.4-2,1.2-.6-.8-1.2.7-1.3-2.3-1.3.8-1.1-1.9,1.1-.7-1.3-2.2,1.4-.8-.7-1.6,1.9-1.2-.7-1.2,7.4-4.6-1.1-1.9,10.8-6.8-.8-1.4-20.1,12.5-2.7-5.5-1.9,1.2-4.5-7.9,2-1.3-3.2-5.4,13.7-8.7-3.2-5.5-1.2.7-1.7-3.1,1-.6-.7-1.6,1.5-1-.8-1.4,9.3-5.8-6.2-10.7,12.1.6,146.3,259.3,2.3,25.9Z"/>
  <path class="st9" d="M461,214.2l4-10.9,12.8,7.9-6.4,12.2,26.6,15.4,3,8.7-8.4,1.7-20.8-11.9-.8,5.7,6.1,3.5-3.7,7-3-1.7,10.2,7-7.2,13.2-10-5.7-1.1,2.3-2.9-1.7-1.6,2.5,12.6,7.3-.5,3.1c-.8,1.6-3.5,7.6-5.1,8.4l-14.8-8.4-1.5,3.1,20.5,11.7-1.7,2.9,2.3,1.4-2.3,5.3-2-1.2-1.4,4.5-1.8-1.1-2.3,5.2-7.4-4.2-3.5,6.5,26.9,15.4-9.6,18-33-19-1.6,1.8,5.5,3.2-1,2.6,3.2,1.9,3.3,9.1,8.3,4.9-.6,1.2-8.4-4.9-9,1.3-2.9-1.7-1.6,2.6-15.4-8.9-1,2.1,31.7,18.2,2,10-9.6,3.8-32.5-18.7-1.2,2.1,33.7,18.6.2,1.8-1.6.5-3.9-2.3-.5,1.1,3.9,2.2.5,1.6-1.6.3-3.9-2.2-1.1,2.1,2.2,1.4v1.2l-1,.7-2.4-1.4-.6,1.4,2,1.2.3,1.4-1.3.4-2-1.2-1.2,2.1,3.9,2.3.5,1.4-1.6.4-4-2.3-.6,1.3,4,2.3.5,1.4-1.5.2-15.5-8.9-1.7,3,2.2,1.3-2.2,4-2.3-1.3-1.1,1.9,2.2,1.4-1.1,1.8-2.1-1.3-2.9,5.7-4.1-2.4-1.3,2.3,2.2,1.3-2.4,4.6-2-1.1-.6,1.4-1-.5-1.4,3.1-20.2-12-1.3,2.4,32.7,18.8-4.9,9.2-3.2-1.9-2.6,4.8-3.2-1.8-1.3,2.6-15.8-9.1-.5,1.1,8,4.6-.8,1.4,2,1.2-.4,1,1.2.7-1.3,2.3,1.4.7-1.1,1.9-1.1-.6-1.3,2.2-1.5-.7-.8,1.5-1.9-1.2-.6,1.3-7.6-4.3-1.1,1.9-11-6.3-.7,1.5,20.4,11.8-3.1,5.3,1.9,1.1-4.3,8.1-2.1-1.3-2.9,5.6-14-8-3,5.6,1.2.7-1.7,3.1-1.1-.6-.8,1.6-1.6-1-.7,1.5-9.4-5.4-5.8,10.9-5.5-11.2,128-248,13.6-1.5Z"/>
  <g id="Cut-Layer1" data-name="Cut-Layer" serif:id="Cut Layer">
    <g id="g361" data-name="g36">
      <path id="path28" class="st7" d="M291.3,283.6c0-10.1,8.3-18.4,18.4-18.4s18.4,8.3,18.4,18.4-8.3,18.4-18.4,18.4-18.4-8.3-18.4-18.4Z"/>
    </g>
  </g>
</svg>